<?xml version="1.0" standalone="no"?>
<!DOCTYPE svg PUBLIC "-//W3C//DTD SVG 20010904//EN"
 "http://www.w3.org/TR/2001/REC-SVG-20010904/DTD/svg10.dtd">
<svg version="1.0" xmlns="http://www.w3.org/2000/svg"
 width="498.000000pt" height="498.000000pt" viewBox="0 0 498.000000 498.000000"
 preserveAspectRatio="xMidYMid meet">
<metadata>
Created by potrace 1.14, written by Peter Selinger 2001-2017
</metadata>
<g transform="translate(0.000000,498.000000) scale(0.100000,-0.100000)"
fill="#000000" stroke="none">
<path d="M3 4930 c25 -206 182 -616 311 -812 l18 -27 45 59 c66 89 254 272
364 355 53 40 103 75 110 78 17 6 6 16 -116 98 -167 113 -404 220 -611 273
-133 35 -128 36 -121 -24z"/>
<path d="M1615 4970 c-11 -5 -56 -23 -100 -40 -122 -47 -169 -68 -310 -140
-136 -69 -337 -190 -333 -200 2 -4 40 -38 84 -78 97 -85 221 -218 305 -328 34
-43 62 -80 63 -82 7 -7 94 131 146 231 84 162 144 349 175 542 l13 80 1 -97 1
-98 28 -1 c15 0 132 0 260 1 166 1 232 -2 232 -10 0 -7 6 -5 15 4 11 11 15 40
15 120 l0 106 -287 -1 c-159 0 -297 -4 -308 -9z"/>
<path d="M2740 4951 c0 -16 -6 -32 -12 -34 -10 -4 -10 -6 0 -6 14 -1 17 -41 2
-41 -5 0 -10 7 -10 15 0 8 -5 15 -11 15 -5 0 -7 -5 -3 -11 3 -6 0 -15 -7 -21
-12 -7 -11 -9 1 -7 35 4 40 -2 40 -46 0 -41 2 -45 25 -45 19 0 23 -4 19 -17
-5 -17 -5 -17 6 0 9 15 27 17 128 17 79 0 112 -3 102 -10 -9 -6 -10 -10 -3
-10 6 0 15 5 18 10 3 6 16 10 28 9 21 0 21 -1 2 -9 -16 -7 -17 -9 -3 -9 9 -1
19 3 23 8 3 6 57 10 119 10 l114 1 -1 -239 0 -240 -181 2 c-100 1 -190 6 -201
11 -16 6 -17 6 -5 -4 15 -11 14 -11 -50 6 -8 2 -19 0 -25 -4 -16 -12 -16 -32
1 -32 9 0 12 5 8 13 -6 10 -4 10 7 0 7 -7 21 -13 31 -13 10 0 18 -4 18 -10 0
-5 6 -10 14 -10 13 0 83 -62 120 -107 19 -23 13 -44 -20 -77 -14 -15 -13 -16
15 -16 16 0 32 4 35 9 4 5 -3 7 -14 4 -22 -6 -26 7 -8 25 9 9 14 7 24 -6 15
-19 18 -48 7 -55 -5 -2 -3 -2 4 -1 30 7 24 -41 -5 -50 -10 -2 -6 -4 8 -3 21 2
25 -3 28 -31 2 -18 -2 -40 -9 -48 -9 -12 -9 -13 3 -9 23 9 17 -78 -7 -107
l-20 -23 24 20 c22 18 24 19 18 2 -4 -10 -7 -23 -7 -28 0 -5 -15 -9 -33 -9
-23 0 -34 -5 -34 -15 0 -8 4 -15 9 -15 4 0 8 4 8 10 0 5 11 9 24 8 l24 -2 -18
-48 c-69 -181 -227 -303 -445 -343 -63 -12 -36 -13 293 -14 l362 -1 0 -225 0
-225 574 0 574 0 5 -37 c7 -45 4 -150 -4 -157 -3 -3 -262 -7 -575 -8 l-569 -3
-2 -500 -3 -500 116 -29 c214 -52 456 -161 641 -288 56 -39 103 -74 103 -78 0
-4 -10 -12 -23 -17 -103 -47 -497 -432 -497 -486 0 -19 79 -124 154 -205 64
-68 186 -172 254 -217 l42 -28 58 39 c155 106 472 389 472 422 0 35 -273 342
-386 433 -35 29 -64 55 -64 59 0 3 55 40 123 82 142 90 382 207 549 269 l118
44 0 201 c0 162 -3 203 -14 207 -7 3 -261 5 -565 4 l-551 -2 0 94 0 94 565 -6
565 -6 0 1364 0 1365 -285 0 -285 0 -2 -297 -3 -298 -242 -3 -243 -2 0 300 0
300 -590 0 -590 0 0 -29z m1661 -1123 c1 -24 1 -133 0 -320 l-1 -188 -245 0
-246 0 2 260 1 260 244 0 c188 0 244 -3 245 -12z"/>
<path d="M2370 4912 c0 -6 -8 -13 -17 -15 -16 -4 -16 -5 -1 -6 18 -1 34 16 24
26 -3 4 -6 1 -6 -5z"/>
<path d="M2620 4886 c0 -24 26 -38 39 -22 10 12 8 13 -10 9 -18 -5 -21 -3 -16
10 4 10 2 17 -3 17 -6 0 -10 -6 -10 -14z"/>
<path d="M2365 4870 c3 -5 12 -7 20 -3 21 7 19 13 -6 13 -11 0 -18 -4 -14 -10z"/>
<path d="M2420 4870 c-8 -5 -10 -10 -5 -10 6 0 17 5 25 10 8 5 11 10 5 10 -5
0 -17 -5 -25 -10z"/>
<path d="M2492 4855 c-11 -13 -10 -15 7 -15 14 0 19 5 15 15 -7 18 -6 18 -22
0z"/>
<path d="M2355 4839 c-4 -6 -5 -12 -2 -15 2 -3 7 2 10 11 7 17 1 20 -8 4z"/>
<path d="M2390 4828 c-11 -12 -20 -25 -20 -30 0 -4 -6 -8 -13 -8 -7 0 -18 -9
-24 -20 -23 -36 13 -11 52 36 38 46 41 60 5 22z"/>
<path d="M2691 4804 c0 -11 3 -14 6 -6 3 7 2 16 -1 19 -3 4 -6 -2 -5 -13z"/>
<path d="M2580 4790 c-9 -6 -10 -10 -3 -10 6 0 15 5 18 10 8 12 4 12 -15 0z"/>
<path d="M2659 4773 c-13 -16 -12 -17 4 -4 16 13 21 21 13 21 -2 0 -10 -8 -17
-17z"/>
<path d="M2497 4750 c-9 -11 -13 -20 -9 -20 4 0 15 9 25 20 9 11 13 20 9 20
-4 0 -15 -9 -25 -20z"/>
<path d="M2220 4745 c-7 -8 -9 -15 -6 -15 4 0 14 7 22 15 9 8 11 15 6 15 -5 0
-15 -7 -22 -15z"/>
<path d="M2406 4744 c-17 -12 -17 -14 -4 -14 9 0 20 5 23 11 11 17 2 18 -19 3z"/>
<path d="M3201 4744 c0 -11 3 -14 6 -6 3 7 2 16 -1 19 -3 4 -6 -2 -5 -13z"/>
<path d="M2355 4740 c-16 -7 -17 -9 -3 -9 9 -1 20 4 23 9 7 11 7 11 -20 0z"/>
<path d="M2580 4740 c-9 -6 -10 -10 -3 -10 6 0 15 5 18 10 8 12 4 12 -15 0z"/>
<path d="M3145 4740 c-3 -5 1 -10 9 -10 9 0 16 5 16 10 0 6 -4 10 -9 10 -6 0
-13 -4 -16 -10z"/>
<path d="M1708 4733 c7 -3 16 -2 19 1 4 3 -2 6 -13 5 -11 0 -14 -3 -6 -6z"/>
<path d="M1743 4725 c0 -8 4 -15 9 -15 4 0 8 7 8 15 0 8 -4 15 -8 15 -5 0 -9
-7 -9 -15z"/>
<path d="M2435 4720 c-16 -17 -16 -20 -3 -15 9 4 19 13 22 21 7 19 2 18 -19
-6z"/>
<path d="M2518 4719 c-10 -10 -14 -19 -10 -19 5 0 17 9 27 20 10 11 14 20 9
19 -5 0 -17 -9 -26 -20z"/>
<path d="M2620 4725 c0 -8 2 -15 4 -15 2 0 6 7 10 15 3 8 1 15 -4 15 -6 0 -10
-7 -10 -15z"/>
<path d="M2660 4731 c0 -6 5 -13 10 -16 6 -3 10 1 10 9 0 9 -4 16 -10 16 -5 0
-10 -4 -10 -9z"/>
<path d="M2984 4715 c-19 -21 -20 -26 -8 -36 8 -7 17 -9 21 -5 3 3 1 6 -5 6
-7 0 -12 5 -12 10 0 6 7 10 15 10 8 0 15 -5 15 -11 0 -6 7 -3 16 5 8 9 13 22
11 29 -4 9 -6 9 -6 0 -1 -7 -8 -13 -16 -13 -18 0 -20 16 -2 23 6 3 8 6 2 6 -5
0 -20 -10 -31 -24z"/>
<path d="M3067 4706 c-20 -19 -33 -37 -30 -40 4 -3 12 -1 19 5 7 6 18 8 25 4
8 -6 8 -10 -2 -16 -7 -4 -11 -10 -8 -13 3 -3 16 6 30 20 16 17 18 23 7 19 -34
-13 -41 7 -13 31 16 13 23 24 17 24 -5 0 -26 -15 -45 -34z"/>
<path d="M2900 4722 c0 -6 -7 -12 -15 -12 -8 0 -15 -7 -15 -16 0 -14 2 -14 16
1 13 12 19 14 28 4 8 -8 8 -13 -1 -16 -7 -3 -13 -10 -13 -16 0 -6 7 -4 16 5
15 15 15 18 0 39 -9 13 -16 18 -16 11z"/>
<path d="M2366 4708 c3 -5 10 -6 15 -3 13 9 11 12 -6 12 -8 0 -12 -4 -9 -9z"/>
<path d="M2041 4694 c0 -11 3 -14 6 -6 3 7 2 16 -1 19 -3 4 -6 -2 -5 -13z"/>
<path d="M2241 4694 c0 -11 3 -14 6 -6 3 7 2 16 -1 19 -3 4 -6 -2 -5 -13z"/>
<path d="M2740 4699 c0 -5 5 -7 10 -4 6 3 10 8 10 11 0 2 -4 4 -10 4 -5 0 -10
-5 -10 -11z"/>
<path d="M2265 4680 c-3 -6 1 -7 9 -4 18 7 21 14 7 14 -6 0 -13 -4 -16 -10z"/>
<path d="M2305 4680 c-3 -6 1 -7 9 -4 18 7 21 14 7 14 -6 0 -13 -4 -16 -10z"/>
<path d="M2357 4684 c-9 -9 4 -34 18 -34 7 0 18 7 25 15 9 10 9 15 1 15 -6 0
-11 -4 -11 -10 0 -5 -5 -10 -11 -10 -6 0 -9 7 -5 15 5 15 -5 21 -17 9z"/>
<path d="M2675 4679 c-4 -6 -5 -12 -2 -15 2 -3 7 2 10 11 7 17 1 20 -8 4z"/>
<path d="M2811 4681 c-7 -5 -12 -14 -10 -20 2 -6 10 -2 17 9 14 22 13 23 -7
11z"/>
<path d="M2706 4663 c-6 -14 -5 -15 5 -6 7 7 10 15 7 18 -3 3 -9 -2 -12 -12z"/>
<path d="M2940 4665 c0 -8 2 -15 4 -15 2 0 6 7 10 15 3 8 1 15 -4 15 -6 0 -10
-7 -10 -15z"/>
<path d="M3221 4664 c0 -11 3 -14 6 -6 3 7 2 16 -1 19 -3 4 -6 -2 -5 -13z"/>
<path d="M3258 4650 c-10 -9 -15 -20 -11 -23 3 -4 13 2 21 14 18 26 12 32 -10
9z"/>
<path d="M2328 4653 c7 -3 16 -2 19 1 4 3 -2 6 -13 5 -11 0 -14 -3 -6 -6z"/>
<path d="M2416 4645 c4 -8 8 -15 10 -15 2 0 4 7 4 15 0 8 -4 15 -10 15 -5 0
-7 -7 -4 -15z"/>
<path d="M2460 4649 c0 -5 5 -7 10 -4 6 3 10 8 10 11 0 2 -4 4 -10 4 -5 0 -10
-5 -10 -11z"/>
<path d="M3140 4638 c0 -4 4 -8 9 -8 6 0 12 4 15 8 3 5 -1 9 -9 9 -8 0 -15 -4
-15 -9z"/>
<path d="M3196 4633 c-6 -14 -5 -15 5 -6 7 7 10 15 7 18 -3 3 -9 -2 -12 -12z"/>
<path d="M2580 4630 c-9 -6 -10 -10 -3 -10 6 0 15 5 18 10 8 12 4 12 -15 0z"/>
<path d="M1740 4616 c0 -8 7 -17 16 -20 13 -5 14 -4 6 7 -7 8 -9 17 -5 20 3 4
1 7 -5 7 -7 0 -12 -6 -12 -14z"/>
<path d="M2386 4619 c3 -6 0 -16 -7 -21 -10 -6 -7 -7 10 -3 13 4 26 3 30 -3 4
-6 12 -4 21 6 13 14 12 15 -3 9 -11 -4 -20 -1 -23 8 -4 8 -13 15 -21 15 -8 0
-11 -5 -7 -11z"/>
<path d="M2663 4615 c0 -8 4 -15 9 -15 4 0 8 7 8 15 0 8 -4 15 -8 15 -5 0 -9
-7 -9 -15z"/>
<path d="M2808 4623 c7 -3 16 -2 19 1 4 3 -2 6 -13 5 -11 0 -14 -3 -6 -6z"/>
<path d="M2900 4619 c0 -5 5 -7 10 -4 6 3 10 8 10 11 0 2 -4 4 -10 4 -5 0 -10
-5 -10 -11z"/>
<path d="M3036 4615 c-3 -9 -18 -15 -39 -15 -37 0 -46 -20 -16 -38 14 -9 22
-4 48 29 18 21 28 39 23 39 -6 0 -12 -7 -16 -15z m-26 -35 c0 -5 -7 -10 -15
-10 -8 0 -15 5 -15 10 0 6 7 10 15 10 8 0 15 -4 15 -10z"/>
<path d="M3217 4605 c-6 -13 -11 -15 -19 -7 -13 13 -48 -2 -48 -20 0 -6 9 -3
20 7 18 16 20 16 26 2 5 -15 8 -15 21 -2 8 9 13 21 11 27 -3 7 -7 4 -11 -7z"/>
<path d="M3267 4605 c-4 -9 -1 -15 8 -15 8 0 15 -5 15 -12 0 -6 3 -9 6 -5 3 3
-1 15 -9 27 -12 17 -15 18 -20 5z"/>
<path d="M1700 4600 c8 -5 20 -10 25 -10 6 0 3 5 -5 10 -8 5 -19 10 -25 10 -5
0 -3 -5 5 -10z"/>
<path d="M2108 4603 c7 -3 16 -2 19 1 4 3 -2 6 -13 5 -11 0 -14 -3 -6 -6z"/>
<path d="M2280 4590 c-13 -11 -19 -20 -13 -20 5 0 18 9 28 20 10 11 16 20 13
20 -3 0 -15 -9 -28 -20z"/>
<path d="M2325 4594 c-9 -9 -14 -18 -11 -21 2 -3 14 5 25 16 12 12 17 21 12
21 -5 0 -17 -7 -26 -16z"/>
<path d="M2466 4594 c-23 -23 -20 -30 4 -9 11 10 20 20 20 22 0 7 -9 2 -24
-13z"/>
<path d="M2235 4590 c4 -6 11 -8 16 -5 14 9 11 15 -7 15 -8 0 -12 -5 -9 -10z"/>
<path d="M2496 4585 c-3 -8 -1 -15 4 -15 6 0 10 7 10 15 0 8 -2 15 -4 15 -2 0
-6 -7 -10 -15z"/>
<path d="M2781 4584 c0 -11 3 -14 6 -6 3 7 2 16 -1 19 -3 4 -6 -2 -5 -13z"/>
<path d="M3108 4593 c7 -3 16 -2 19 1 4 3 -2 6 -13 5 -11 0 -14 -3 -6 -6z"/>
<path d="M2025 4569 c-4 -6 -5 -12 -2 -15 2 -3 7 2 10 11 7 17 1 20 -8 4z"/>
<path d="M2342 4561 c-26 -22 -28 -37 -6 -45 8 -3 12 -10 9 -16 -3 -5 -1 -10
4 -10 15 0 14 27 -1 32 -7 3 -5 13 7 31 20 32 16 34 -13 8z"/>
<path d="M2386 4565 c4 -8 10 -15 15 -15 5 0 9 7 9 15 0 8 -7 15 -15 15 -9 0
-12 -6 -9 -15z"/>
<path d="M2710 4570 c0 -5 5 -10 11 -10 5 0 7 5 4 10 -3 6 -8 10 -11 10 -2 0
-4 -4 -4 -10z"/>
<path d="M1740 4560 c0 -5 5 -10 10 -10 6 0 10 5 10 10 0 6 -4 10 -10 10 -5 0
-10 -4 -10 -10z"/>
<path d="M2753 4555 c0 -8 4 -12 9 -9 4 3 8 9 8 15 0 5 -4 9 -8 9 -5 0 -9 -7
-9 -15z"/>
<path d="M2800 4555 c0 -8 2 -15 4 -15 2 0 6 7 10 15 3 8 1 15 -4 15 -6 0 -10
-7 -10 -15z"/>
<path d="M2240 4550 c-9 -6 -10 -10 -3 -10 6 0 15 5 18 10 8 12 4 12 -15 0z"/>
<path d="M2032 4529 c-19 -30 -11 -32 11 -3 10 13 14 24 10 24 -5 0 -14 -9
-21 -21z"/>
<path d="M2371 4534 c0 -11 3 -14 6 -6 3 7 2 16 -1 19 -3 4 -6 -2 -5 -13z"/>
<path d="M2460 4535 c0 -8 2 -15 4 -15 2 0 6 7 10 15 3 8 1 15 -4 15 -6 0 -10
-7 -10 -15z"/>
<path d="M2551 4534 c0 -11 3 -14 6 -6 3 7 2 16 -1 19 -3 4 -6 -2 -5 -13z"/>
<path d="M3018 4543 c7 -3 16 -2 19 1 4 3 -2 6 -13 5 -11 0 -14 -3 -6 -6z"/>
<path d="M1712 4533 c-7 -2 -17 -14 -23 -26 -9 -19 -8 -20 3 -7 8 8 20 21 28
28 15 13 13 14 -8 5z"/>
<path d="M1750 4520 c-9 -6 -10 -10 -3 -10 6 0 15 5 18 10 8 12 4 12 -15 0z"/>
<path d="M3270 4510 c-6 -11 -9 -20 -8 -20 2 0 11 9 21 20 9 11 13 20 7 20 -5
0 -14 -9 -20 -20z"/>
<path d="M2668 4513 c7 -3 16 -2 19 1 4 3 -2 6 -13 5 -11 0 -14 -3 -6 -6z"/>
<path d="M2933 4494 c-7 -7 -13 -18 -13 -24 0 -5 -7 -10 -15 -10 -8 0 -15 -6
-15 -14 0 -8 -6 -17 -12 -19 -7 -3 -8 -6 -3 -6 14 -1 47 30 63 58 16 27 13 35
-5 15z"/>
<path d="M1951 4484 c0 -11 3 -14 6 -6 3 7 2 16 -1 19 -3 4 -6 -2 -5 -13z"/>
<path d="M2420 4482 c0 -7 -6 -12 -13 -12 -8 0 -14 -7 -14 -15 0 -8 7 -15 15
-15 9 0 12 3 9 7 -4 3 -2 12 5 20 6 7 8 16 4 20 -3 3 -6 1 -6 -5z"/>
<path d="M2691 4478 c-1 -21 -37 -25 -44 -5 -3 6 -6 8 -6 2 0 -5 5 -17 12 -25
18 -22 62 -57 53 -42 -4 7 -1 15 8 18 18 7 22 34 5 34 -5 0 -7 -5 -4 -10 7
-11 -22 -26 -32 -16 -3 3 0 12 7 20 6 9 10 21 7 28 -4 8 -6 7 -6 -4z"/>
<path d="M2971 4474 c0 -11 3 -14 6 -6 3 7 2 16 -1 19 -3 4 -6 -2 -5 -13z"/>
<path d="M3060 4475 c0 -8 2 -15 4 -15 2 0 6 7 10 15 3 8 1 15 -4 15 -6 0 -10
-7 -10 -15z"/>
<path d="M2591 4464 c0 -11 3 -14 6 -6 3 7 2 16 -1 19 -3 4 -6 -2 -5 -13z"/>
<path d="M3235 4470 c-3 -5 -1 -10 4 -10 6 0 11 5 11 10 0 6 -2 10 -4 10 -3 0
-8 -4 -11 -10z"/>
<path d="M2020 4458 c0 -9 -6 -19 -12 -21 -10 -4 -10 -6 0 -6 14 -1 28 26 18
36 -3 4 -6 -1 -6 -9z"/>
<path d="M2348 4463 c7 -3 16 -2 19 1 4 3 -2 6 -13 5 -11 0 -14 -3 -6 -6z"/>
<path d="M2615 4448 c5 -13 2 -18 -10 -18 -9 0 -13 -5 -9 -11 4 -7 11 -6 22 5
13 13 14 18 3 28 -10 11 -11 10 -6 -4z"/>
<path d="M2748 4453 c7 -3 16 -2 19 1 4 3 -2 6 -13 5 -11 0 -14 -3 -6 -6z"/>
<path d="M2800 4445 c0 -8 2 -15 4 -15 2 0 6 7 10 15 3 8 1 15 -4 15 -6 0 -10
-7 -10 -15z"/>
<path d="M1937 4439 c7 -7 15 -10 18 -7 3 3 -2 9 -12 12 -14 6 -15 5 -6 -5z"/>
<path d="M2561 4433 c-7 -8 -11 -16 -8 -19 2 -2 10 2 17 11 17 20 9 27 -9 8z"/>
<path d="M3078 4443 c7 -3 16 -2 19 1 4 3 -2 6 -13 5 -11 0 -14 -3 -6 -6z"/>
<path d="M2230 4428 c0 -9 -6 -19 -12 -21 -10 -4 -10 -6 0 -6 14 -1 28 26 18
36 -3 4 -6 -1 -6 -9z"/>
<path d="M2926 4423 c-6 -14 -5 -15 5 -6 7 7 10 15 7 18 -3 3 -9 -2 -12 -12z"/>
<path d="M3110 4429 c0 -5 5 -7 10 -4 6 3 10 8 10 11 0 2 -4 4 -10 4 -5 0 -10
-5 -10 -11z"/>
<path d="M2640 4424 c0 -6 -10 -21 -22 -34 -18 -19 -19 -22 -5 -17 11 4 20 1
23 -7 4 -12 10 -10 26 6 11 11 16 23 12 26 -3 4 -9 1 -11 -5 -5 -14 -33 -18
-33 -5 0 4 5 13 12 20 6 6 9 15 5 19 -4 3 -7 2 -7 -3z"/>
<path d="M2831 4423 c-1 -6 -9 -14 -18 -17 -15 -4 -15 -5 2 -4 35 1 38 -2 25
-17 -11 -13 -10 -14 3 -9 21 7 30 34 13 34 -8 0 -17 6 -19 13 -4 8 -6 8 -6 0z"/>
<path d="M1895 4412 c-5 -4 -16 -15 -23 -24 -11 -14 -11 -16 7 -11 23 6 28 -6
10 -24 -9 -9 -7 -10 10 -6 25 6 28 28 5 37 -13 5 -14 9 -4 21 13 16 11 19 -5
7z"/>
<path d="M2035 4412 c-5 -4 -17 -16 -25 -27 -11 -15 -7 -14 13 4 24 22 32 31
25 31 -2 0 -7 -4 -13 -8z"/>
<path d="M2111 4399 c-13 -11 -22 -21 -20 -23 2 -3 17 7 32 20 15 13 24 24 20
24 -4 -1 -19 -10 -32 -21z"/>
<path d="M2170 4410 c-9 -6 -10 -10 -3 -10 6 0 15 5 18 10 8 12 4 12 -15 0z"/>
<path d="M2310 4410 c-9 -6 -10 -10 -3 -10 6 0 15 5 18 10 8 12 4 12 -15 0z"/>
<path d="M2355 4410 c-16 -7 -17 -9 -3 -9 9 -1 20 4 23 9 7 11 7 11 -20 0z"/>
<path d="M1822 4395 c-13 -7 -19 -15 -14 -19 5 -3 17 3 27 14 21 23 19 23 -13
5z"/>
<path d="M2066 4393 c-6 -14 -5 -15 5 -6 7 7 10 15 7 18 -3 3 -9 -2 -12 -12z"/>
<path d="M2575 4399 c-4 -6 -5 -12 -2 -15 2 -3 7 2 10 11 7 17 1 20 -8 4z"/>
<path d="M2895 4401 c3 -6 -3 -14 -12 -20 -10 -6 -13 -11 -7 -11 12 0 34 20
34 32 0 4 -5 8 -11 8 -5 0 -8 -4 -4 -9z"/>
<path d="M2951 4394 c0 -11 3 -14 6 -6 3 7 2 16 -1 19 -3 4 -6 -2 -5 -13z"/>
<path d="M2300 4386 c0 -2 7 -7 16 -10 8 -3 12 -2 9 4 -6 10 -25 14 -25 6z"/>
<path d="M2363 4364 c-13 -14 -18 -24 -11 -22 10 4 45 48 37 48 -2 0 -14 -12
-26 -26z"/>
<path d="M3011 4364 c0 -11 3 -14 6 -6 3 7 2 16 -1 19 -3 4 -6 -2 -5 -13z"/>
<path d="M2224 4362 c-6 -4 -13 -15 -17 -25 -4 -11 -12 -15 -18 -11 -8 4 -9 3
-5 -4 5 -8 0 -12 -13 -12 -10 0 -21 4 -23 9 -1 5 -8 3 -15 -4 -9 -10 -6 -14
17 -17 35 -5 39 -3 69 40 23 33 24 37 5 24z"/>
<path d="M1981 4344 c0 -11 3 -14 6 -6 3 7 2 16 -1 19 -3 4 -6 -2 -5 -13z"/>
<path d="M2156 4345 c4 -8 7 -15 9 -15 2 0 5 7 9 15 3 9 0 15 -9 15 -9 0 -12
-6 -9 -15z"/>
<path d="M2397 4353 c-4 -3 -7 -11 -7 -17 0 -6 5 -5 12 2 6 6 9 14 7 17 -3 3
-9 2 -12 -2z"/>
<path d="M2675 4350 c-11 -5 -15 -9 -10 -9 6 -1 3 -6 -5 -11 -11 -7 -4 -9 25
-9 33 1 36 2 15 8 -24 7 -24 7 -5 19 23 13 10 15 -20 2z"/>
<path d="M2795 4336 c-11 -14 -27 -26 -37 -26 -29 0 -48 -12 -48 -29 1 -14 2
-14 11 2 12 20 75 24 81 5 3 -7 7 -6 11 5 4 12 1 17 -11 17 -15 1 -15 2 2 15
10 7 16 19 14 25 -2 7 -12 1 -23 -14z"/>
<path d="M3221 4344 c0 -11 3 -14 6 -6 3 7 2 16 -1 19 -3 4 -6 -2 -5 -13z"/>
<path d="M2850 4340 c0 -5 5 -10 11 -10 5 0 7 5 4 10 -3 6 -8 10 -11 10 -2 0
-4 -4 -4 -10z"/>
<path d="M3036 4333 c-6 -14 -5 -15 5 -6 7 7 10 15 7 18 -3 3 -9 -2 -12 -12z"/>
<path d="M2750 4330 c-9 -6 -10 -10 -3 -10 6 0 15 5 18 10 8 12 4 12 -15 0z"/>
<path d="M1714 4321 c8 -12 -31 -44 -43 -36 -8 4 -11 -138 -11 -477 l-1 -483
-29 112 c-31 118 -75 241 -130 358 -37 80 -162 295 -171 295 -4 0 -42 -37 -85
-81 -127 -131 -421 -369 -455 -369 -46 0 -342 274 -414 383 -21 31 -41 57 -44
57 -4 0 -35 -42 -68 -92 -114 -174 -215 -402 -249 -561 -22 -108 -23 -106 38
-95 158 29 420 129 620 238 61 33 115 60 121 60 5 0 52 -24 106 -54 188 -106
388 -183 586 -227 94 -21 126 -23 510 -24 226 -2 395 0 378 2 -22 3 -33 10
-34 21 0 11 -3 12 -6 5 -2 -7 -15 -13 -28 -13 -35 0 -77 21 -71 37 3 7 1 13
-4 13 -6 0 -10 -4 -10 -10 0 -5 -10 -10 -22 -10 -19 0 -20 2 -8 10 12 8 10 10
-9 10 -30 0 -117 42 -153 75 -19 16 -26 30 -22 42 5 15 4 15 -5 3 -9 -13 -13
-11 -28 10 -10 14 -17 28 -15 33 1 4 -2 7 -8 7 -5 0 -10 6 -10 14 0 7 -7 19
-15 26 -14 11 -13 14 5 27 21 15 27 33 10 33 -5 0 -10 -7 -10 -15 0 -26 -28
-16 -38 13 -11 33 2 49 43 54 16 2 30 9 31 16 1 7 0 8 -3 2 -6 -13 -43 -13
-43 0 0 6 -8 5 -20 -2 -10 -7 -22 -10 -25 -7 -3 4 -7 48 -10 99 -4 96 8 193
25 198 6 2 8 8 5 13 -8 12 36 110 46 103 5 -3 6 2 3 10 -4 11 0 16 11 16 9 0
13 5 10 11 -9 13 24 51 38 42 5 -3 7 -2 4 4 -6 10 21 38 58 60 19 12 18 12
-10 13 -23 0 -27 3 -15 10 11 7 2 10 -33 10 -30 0 -46 4 -42 10 3 6 1 10 -4
10 -15 0 -14 -28 2 -33 6 -2 4 -3 -5 -2 -10 2 -34 -1 -55 -5 -23 -6 -42 -5
-49 1 -8 7 -14 6 -19 -1 -12 -19 -26 -10 -20 13 7 21 6 21 -7 3 -9 -11 -30
-20 -56 -22 -39 -3 -55 7 -32 21 13 8 13 25 -1 25 -5 0 -8 -4 -5 -9z m303 -27
c-3 -3 -12 -4 -19 -1 -8 3 -5 6 6 6 11 1 17 -2 13 -5z"/>
<path d="M2082 4315 c-11 -13 -10 -15 6 -15 10 0 19 7 19 15 0 19 -8 19 -25 0z"/>
<path d="M2353 4324 c21 -7 22 -21 2 -27 -11 -4 -10 -4 2 -3 25 2 23 30 -2 33
-16 1 -16 1 -2 -3z"/>
<path d="M2565 4320 c-3 -6 1 -7 9 -4 18 7 21 14 7 14 -6 0 -13 -4 -16 -10z"/>
<path d="M2600 4315 c0 -11 -11 -15 -37 -15 -20 0 -34 -3 -30 -6 3 -3 -6 -17
-21 -30 -15 -13 -24 -24 -21 -24 3 0 19 11 34 24 34 29 82 39 94 18 7 -12 9
-12 14 2 4 10 1 16 -8 16 -18 0 -20 16 -2 23 7 3 5 6 -5 6 -10 1 -18 -6 -18
-14z"/>
<path d="M3056 4315 c-3 -8 -1 -15 3 -15 5 0 11 7 15 15 3 8 1 15 -3 15 -5 0
-11 -7 -15 -15z"/>
<path d="M3196 4315 c-3 -8 -1 -15 4 -15 6 0 10 7 10 15 0 8 -2 15 -4 15 -2 0
-6 -7 -10 -15z"/>
<path d="M2220 4305 c-11 -13 -10 -14 4 -9 9 3 16 10 16 15 0 13 -6 11 -20 -6z"/>
<path d="M2270 4305 c-11 -13 -10 -14 4 -9 9 3 16 10 16 15 0 13 -6 11 -20 -6z"/>
<path d="M2460 4304 c-15 -4 -45 -43 -38 -48 2 -2 16 10 32 26 16 15 27 27 25
27 -2 -1 -11 -3 -19 -5z"/>
<path d="M2383 4281 c-17 -27 -3 -34 18 -9 22 25 23 28 6 28 -7 0 -18 -9 -24
-19z"/>
<path d="M2100 4280 c-9 -6 -10 -10 -3 -10 6 0 15 5 18 10 8 12 4 12 -15 0z"/>
<path d="M2160 4270 c28 -5 31 -8 18 -14 -20 -9 -24 -36 -6 -36 6 0 8 3 5 7
-4 3 3 17 15 30 l21 23 -44 -1 -44 -2 35 -7z"/>
<path d="M2222 4275 c7 -8 87 -9 95 -2 3 4 -18 7 -47 7 -29 0 -51 -2 -48 -5z"/>
<path d="M2330 4269 c0 -5 5 -7 10 -4 6 3 10 8 10 11 0 2 -4 4 -10 4 -5 0 -10
-5 -10 -11z"/>
<path d="M2655 4270 c-3 -6 1 -7 9 -4 18 7 21 14 7 14 -6 0 -13 -4 -16 -10z"/>
<path d="M2591 4253 c-7 -8 -11 -16 -8 -19 2 -2 10 2 17 11 17 20 9 27 -9 8z"/>
<path d="M2678 4252 c-10 -4 -14 -12 -10 -19 6 -9 11 -7 20 7 7 11 11 20 10
19 -2 0 -11 -3 -20 -7z"/>
<path d="M2211 4234 c0 -11 3 -14 6 -6 3 7 2 16 -1 19 -3 4 -6 -2 -5 -13z"/>
<path d="M2426 4220 c-9 -17 -22 -27 -28 -24 -7 4 -8 2 -4 -5 6 -8 12 -9 20
-2 7 6 17 7 21 3 5 -4 5 -1 1 6 -5 8 -1 21 10 33 9 10 13 19 8 19 -5 0 -18
-14 -28 -30z"/>
<path d="M2620 4239 c0 -5 5 -7 10 -4 6 3 10 8 10 11 0 2 -4 4 -10 4 -5 0 -10
-5 -10 -11z"/>
<path d="M2790 4230 c-9 -6 -10 -10 -3 -10 6 0 15 5 18 10 8 12 4 12 -15 0z"/>
<path d="M2240 4220 c-8 -5 -10 -10 -5 -10 6 0 17 5 25 10 8 5 11 10 5 10 -5
0 -17 -5 -25 -10z"/>
<path d="M2471 4214 c0 -11 3 -14 6 -6 3 7 2 16 -1 19 -3 4 -6 -2 -5 -13z"/>
<path d="M2511 4214 c0 -11 3 -14 6 -6 3 7 2 16 -1 19 -3 4 -6 -2 -5 -13z"/>
<path d="M2700 4220 c-8 -5 -10 -10 -5 -10 6 0 17 5 25 10 8 5 11 10 5 10 -5
0 -17 -5 -25 -10z"/>
<path d="M2181 4197 c-13 -21 -12 -21 5 -5 10 10 16 20 13 22 -3 3 -11 -5 -18
-17z"/>
<path d="M1980 4185 c0 -6 5 -16 12 -23 9 -9 5 -17 -16 -37 -15 -14 -22 -25
-17 -25 6 0 19 9 30 21 13 15 21 17 26 9 4 -7 4 -15 -1 -19 -5 -3 -15 -14 -22
-23 -11 -14 -11 -16 7 -11 12 3 19 9 16 13 -3 4 2 13 10 20 19 16 19 30 0 30
-8 0 -15 5 -15 10 0 6 5 10 10 10 6 0 10 4 10 10 0 5 -7 7 -16 3 -9 -3 -20 0
-25 8 -5 8 -9 9 -9 4z"/>
<path d="M2235 4160 c-3 -6 1 -7 9 -4 18 7 21 14 7 14 -6 0 -13 -4 -16 -10z"/>
<path d="M2210 4123 c0 -11 3 -14 8 -7 4 6 14 14 22 17 10 4 8 6 -7 6 -16 1
-23 -5 -23 -16z"/>
<path d="M2991 4124 c0 -11 3 -14 6 -6 3 7 2 16 -1 19 -3 4 -6 -2 -5 -13z"/>
<path d="M2041 4093 c-7 -8 -11 -16 -8 -19 2 -2 10 2 17 11 17 20 9 27 -9 8z"/>
<path d="M2780 4095 c0 -8 4 -15 10 -15 5 0 7 7 4 15 -4 8 -8 15 -10 15 -2 0
-4 -7 -4 -15z"/>
<path d="M2920 4095 c0 -8 4 -15 8 -15 5 0 9 7 9 15 0 8 -4 15 -9 15 -4 0 -8
-7 -8 -15z"/>
<path d="M2080 4090 c-9 -6 -10 -10 -3 -10 6 0 15 5 18 10 8 12 4 12 -15 0z"/>
<path d="M2153 4083 c4 -3 1 -13 -6 -21 -10 -13 -9 -14 10 -4 32 17 37 32 12
32 -12 0 -19 -3 -16 -7z"/>
<path d="M2210 4072 c0 -7 -7 -12 -16 -12 -8 0 -12 -5 -8 -11 4 -7 11 -6 22 5
9 8 13 19 9 22 -4 4 -7 2 -7 -4z"/>
<path d="M2343 4065 c0 -8 4 -15 9 -15 4 0 8 4 8 9 0 6 -4 12 -8 15 -5 3 -9
-1 -9 -9z"/>
<path d="M2982 4060 c-18 -29 -15 -38 4 -12 9 13 14 25 12 27 -2 2 -9 -5 -16
-15z"/>
<path d="M2525 4062 c-5 -4 -16 -15 -24 -25 -12 -15 -12 -17 4 -11 10 4 21 1
26 -7 6 -9 9 -10 9 -2 0 6 -5 15 -10 18 -8 5 -7 11 1 21 12 15 10 18 -6 6z"/>
<path d="M2051 4044 c0 -11 3 -14 6 -6 3 7 2 16 -1 19 -3 4 -6 -2 -5 -13z"/>
<path d="M2460 4041 c-41 -43 -45 -52 -26 -63 16 -9 15 -12 -13 -29 -42 -25
-64 -63 -64 -109 0 -39 24 -88 50 -103 7 -5 11 -12 8 -17 -8 -13 55 -23 112
-18 37 3 51 0 63 -14 11 -13 19 -15 30 -8 13 9 12 10 -4 8 -24 -4 -31 29 -7
37 22 7 51 57 51 88 0 14 6 28 13 30 10 4 10 6 0 6 -7 1 -13 9 -13 19 0 10 -8
29 -17 42 -10 14 -17 36 -16 50 1 15 0 18 -3 8 -6 -21 -20 -22 -53 -4 -15 8
-41 11 -70 8 l-46 -5 19 22 c11 11 16 21 11 21 -4 0 -14 -8 -21 -17 -9 -13
-16 -15 -24 -7 -9 9 -5 17 15 32 15 12 25 25 23 30 -1 5 -10 2 -18 -7z"/>
<path d="M2830 4051 c0 -11 29 -35 35 -29 2 2 -4 12 -15 21 -11 9 -20 13 -20
8z"/>
<path d="M2913 4040 c-11 -16 -10 -18 1 -14 15 6 30 34 18 34 -4 0 -13 -9 -19
-20z"/>
<path d="M2222 4035 c-11 -12 -10 -15 3 -15 8 0 15 7 15 15 0 18 -2 18 -18 0z"/>
<path d="M2370 4041 c0 -6 -7 -11 -15 -11 -8 0 -15 -5 -15 -10 0 -7 8 -7 23 1
30 16 30 16 18 24 -6 3 -11 1 -11 -4z"/>
<path d="M2080 4030 c-9 -6 -10 -10 -3 -10 6 0 15 5 18 10 8 12 4 12 -15 0z"/>
<path d="M2140 3997 l-25 -32 27 20 c15 11 29 26 32 33 10 22 -9 11 -34 -21z"/>
<path d="M2620 4015 c0 -8 2 -15 4 -15 2 0 6 7 10 15 3 8 1 15 -4 15 -6 0 -10
-7 -10 -15z"/>
<path d="M2761 4014 c0 -11 3 -14 6 -6 3 7 2 16 -1 19 -3 4 -6 -2 -5 -13z"/>
<path d="M3033 4015 c0 -8 6 -15 13 -15 8 0 11 6 8 15 -4 8 -9 15 -13 15 -4 0
-8 -7 -8 -15z"/>
<path d="M1905 4000 c3 -5 8 -10 11 -10 2 0 4 5 4 10 0 6 -5 10 -11 10 -5 0
-7 -4 -4 -10z"/>
<path d="M2651 3984 c0 -11 3 -14 6 -6 3 7 2 16 -1 19 -3 4 -6 -2 -5 -13z"/>
<path d="M2971 3993 c-1 -7 -8 -13 -17 -13 -8 0 -12 -5 -9 -10 3 -6 -1 -13 -9
-16 -9 -3 -16 -12 -16 -20 0 -8 13 -1 31 17 17 16 28 35 26 42 -4 9 -6 9 -6 0z"/>
<path d="M2990 3965 c0 -8 -5 -15 -12 -15 -6 0 -8 -3 -5 -7 4 -3 16 3 27 15
17 18 18 22 5 22 -8 0 -15 -7 -15 -15z"/>
<path d="M3033 3973 c4 -3 2 -12 -5 -20 -8 -11 -7 -12 6 -7 18 7 22 34 4 34
-6 0 -8 -3 -5 -7z"/>
<path d="M2780 3938 c-11 -12 -20 -25 -20 -30 0 -4 -12 -8 -27 -8 -41 0 -20
-11 27 -13 23 -2 44 1 46 5 3 4 -2 8 -10 8 -9 0 -16 5 -16 10 0 6 5 10 10 10
6 0 10 6 10 14 0 8 6 17 13 19 9 4 9 6 0 6 -7 1 -21 -9 -33 -21z"/>
<path d="M2845 3952 c-5 -4 -16 -15 -24 -25 -12 -15 -12 -17 0 -12 8 3 20 14
27 25 13 22 13 24 -3 12z"/>
<path d="M3070 3950 c-9 -6 -10 -10 -3 -10 6 0 15 5 18 10 8 12 4 12 -15 0z"/>
<path d="M2655 3939 c-4 -6 -5 -12 -2 -15 2 -3 7 2 10 11 7 17 1 20 -8 4z"/>
<path d="M3103 3930 c-11 -16 -10 -18 2 -14 8 4 15 12 15 20 0 19 -3 18 -17
-6z"/>
<path d="M2350 3910 c-15 -13 -18 -20 -9 -20 8 0 20 9 27 20 7 11 11 20 9 20
-2 0 -14 -9 -27 -20z"/>
<path d="M2680 3920 c-9 -6 -10 -10 -3 -10 6 0 15 5 18 10 8 12 4 12 -15 0z"/>
<path d="M3000 3920 c-9 -6 -10 -10 -3 -10 6 0 15 5 18 10 8 12 4 12 -15 0z"/>
<path d="M2110 3905 c-11 -13 -10 -14 4 -9 9 3 16 10 16 15 0 13 -6 11 -20 -6z"/>
<path d="M2145 3893 c-26 -34 -25 -48 3 -49 18 -1 19 -1 2 3 -19 4 -29 23 -12
23 8 0 35 40 30 46 -2 2 -13 -9 -23 -23z"/>
<path d="M2273 3893 c9 -2 25 -2 35 0 9 3 1 5 -18 5 -19 0 -27 -2 -17 -5z"/>
<path d="M2918 3893 c6 -2 18 -2 25 0 6 3 1 5 -13 5 -14 0 -19 -2 -12 -5z"/>
<path d="M2975 3890 c-3 -6 1 -7 9 -4 18 7 21 14 7 14 -6 0 -13 -4 -16 -10z"/>
<path d="M3066 3884 c-23 -23 -20 -30 4 -9 11 10 20 20 20 22 0 7 -9 2 -24
-13z"/>
<path d="M2210 3859 c0 -5 5 -7 10 -4 6 3 10 8 10 11 0 2 -4 4 -10 4 -5 0 -10
-5 -10 -11z"/>
<path d="M2253 3850 c-11 -16 -10 -18 2 -14 8 4 15 12 15 20 0 19 -3 18 -17
-6z"/>
<path d="M2688 3863 c12 -2 32 -2 45 0 12 2 2 4 -23 4 -25 0 -35 -2 -22 -4z"/>
<path d="M3090 3855 c0 -8 2 -15 4 -15 2 0 6 7 10 15 3 8 1 15 -4 15 -6 0 -10
-7 -10 -15z"/>
<path d="M1970 3850 c-8 -5 -12 -12 -9 -15 4 -3 12 1 19 10 14 17 11 19 -10 5z"/>
<path d="M2740 3840 c-8 -5 -10 -10 -5 -10 6 0 17 5 25 10 8 5 11 10 5 10 -5
0 -17 -5 -25 -10z"/>
<path d="M2885 3840 c-3 -6 1 -7 9 -4 18 7 21 14 7 14 -6 0 -13 -4 -16 -10z"/>
<path d="M2926 3834 c-23 -23 -20 -30 4 -9 11 10 20 20 20 22 0 7 -9 2 -24
-13z"/>
<path d="M3100 3815 c-7 -9 -11 -17 -9 -20 3 -2 10 5 17 15 14 24 10 26 -8 5z"/>
<path d="M2125 3809 c-4 -6 -5 -12 -2 -15 2 -3 7 2 10 11 7 17 1 20 -8 4z"/>
<path d="M2725 3809 c-4 -6 -5 -12 -2 -15 2 -3 7 2 10 11 7 17 1 20 -8 4z"/>
<path d="M3040 3802 c0 -6 -8 -13 -17 -15 -16 -4 -16 -5 -1 -6 18 -1 34 16 24
26 -3 4 -6 1 -6 -5z"/>
<path d="M3060 3775 c0 -8 4 -15 8 -15 5 0 9 7 9 15 0 8 -4 15 -9 15 -4 0 -8
-7 -8 -15z"/>
<path d="M2031 3761 c-8 -5 -9 -11 -3 -15 5 -3 12 1 16 9 6 17 6 18 -13 6z"/>
<path d="M1880 3749 c0 -5 5 -7 10 -4 6 3 10 8 10 11 0 2 -4 4 -10 4 -5 0 -10
-5 -10 -11z"/>
<path d="M2908 3738 c6 -6 18 -8 28 -6 14 3 12 5 -9 10 -19 3 -25 2 -19 -4z"/>
<path d="M2133 3724 c-19 -20 -16 -38 3 -20 8 9 14 20 12 25 -2 5 -9 3 -15 -5z"/>
<path d="M2280 3729 c0 -5 5 -7 10 -4 6 3 10 8 10 11 0 2 -4 4 -10 4 -5 0 -10
-5 -10 -11z"/>
<path d="M2366 3725 c-3 -8 -1 -15 4 -15 6 0 10 7 10 15 0 8 -2 15 -4 15 -2 0
-6 -7 -10 -15z"/>
<path d="M2866 3715 c-17 -13 -18 -17 -6 -28 8 -6 11 -8 7 -3 -4 5 0 18 10 28
19 22 15 23 -11 3z"/>
<path d="M2220 3710 c-9 -6 -10 -10 -3 -10 6 0 15 5 18 10 8 12 4 12 -15 0z"/>
<path d="M2030 3702 c0 -6 -8 -12 -17 -15 -10 -2 -3 -4 15 -4 18 0 30 3 25 6
-4 3 -11 10 -15 15 -5 5 -8 5 -8 -2z"/>
<path d="M1915 3690 c-3 -6 1 -7 9 -4 18 7 21 14 7 14 -6 0 -13 -4 -16 -10z"/>
<path d="M2245 3690 c-16 -7 -17 -9 -3 -9 9 -1 20 4 23 9 7 11 7 11 -20 0z"/>
<path d="M2376 3675 c-3 -8 -1 -15 4 -15 6 0 10 7 10 15 0 8 -2 15 -4 15 -2 0
-6 -7 -10 -15z"/>
<path d="M2464 3681 c3 -5 -1 -14 -9 -21 -8 -7 -15 -17 -15 -23 0 -6 6 -2 14
8 7 10 20 16 28 13 8 -4 21 -2 29 3 11 8 9 9 -6 7 -12 -2 -19 2 -17 10 1 6 -5
12 -14 12 -8 0 -13 -4 -10 -9z"/>
<path d="M2774 3681 c5 -8 56 -3 56 5 0 2 -14 4 -31 4 -16 0 -28 -4 -25 -9z"/>
<path d="M3020 3680 c-9 -6 -10 -10 -3 -10 6 0 15 5 18 10 8 12 4 12 -15 0z"/>
<path d="M3052 3660 c-18 -29 -15 -38 4 -12 9 13 14 25 12 27 -2 2 -9 -5 -16
-15z"/>
<path d="M2125 3660 c-3 -6 1 -7 9 -4 18 7 21 14 7 14 -6 0 -13 -4 -16 -10z"/>
<path d="M2575 3650 c4 -6 11 -8 16 -5 14 9 11 15 -7 15 -8 0 -12 -5 -9 -10z"/>
<path d="M2910 3650 c-20 -13 -6 -23 38 -27 20 -1 32 1 26 5 -6 4 -14 14 -17
22 -4 12 -6 11 -6 -2 -1 -10 -8 -18 -17 -18 -10 0 -14 6 -10 15 6 17 6 18 -14
5z"/>
<path d="M2145 3630 c-3 -6 1 -7 9 -4 18 7 21 14 7 14 -6 0 -13 -4 -16 -10z"/>
<path d="M2475 3630 c-16 -7 -17 -9 -3 -9 9 -1 20 4 23 9 7 11 7 11 -20 0z"/>
<path d="M2760 3630 c0 -5 5 -10 11 -10 5 0 7 5 4 10 -3 6 -8 10 -11 10 -2 0
-4 -4 -4 -10z"/>
<path d="M2375 3620 c3 -5 8 -10 11 -10 2 0 4 5 4 10 0 6 -5 10 -11 10 -5 0
-7 -4 -4 -10z"/>
<path d="M3010 3619 c0 -5 5 -7 10 -4 6 3 10 8 10 11 0 2 -4 4 -10 4 -5 0 -10
-5 -10 -11z"/>
<path d="M2450 3600 c-9 -6 -10 -10 -3 -10 6 0 15 5 18 10 8 12 4 12 -15 0z"/>
<path d="M2590 3600 c-9 -6 -10 -10 -3 -10 6 0 15 5 18 10 8 12 4 12 -15 0z"/>
<path d="M2913 3603 c-17 -6 -16 -21 2 -39 8 -9 15 -11 15 -5 0 5 -5 13 -10
16 -8 5 -7 11 1 21 12 15 11 15 -8 7z"/>
<path d="M2621 3584 c0 -11 3 -14 6 -6 3 7 2 16 -1 19 -3 4 -6 -2 -5 -13z"/>
<path d="M2716 3583 c-6 -14 -5 -15 5 -6 7 7 10 15 7 18 -3 3 -9 -2 -12 -12z"/>
<path d="M2946 3583 c-6 -14 -5 -15 5 -6 7 7 10 15 7 18 -3 3 -9 -2 -12 -12z"/>
<path d="M2481 3571 c-12 -8 -12 -11 1 -25 14 -14 16 -13 14 9 0 14 -1 25 -1
25 0 0 -6 -4 -14 -9z"/>
<path d="M2830 3565 c0 -8 -6 -15 -14 -15 -7 0 -16 -10 -19 -22 -5 -20 -3 -19
22 8 16 17 35 34 42 37 8 3 5 6 -8 6 -14 1 -23 -5 -23 -14z"/>
<path d="M2275 3556 c-23 -25 -26 -40 -4 -19 12 12 21 24 18 27 -2 2 -9 -1
-14 -8z"/>
<path d="M2375 3560 c-3 -5 -1 -10 4 -10 6 0 11 5 11 10 0 6 -2 10 -4 10 -3 0
-8 -4 -11 -10z"/>
<path d="M2416 3553 c-6 -14 -5 -15 5 -6 7 7 10 15 7 18 -3 3 -9 -2 -12 -12z"/>
<path d="M2645 3560 c3 -5 8 -10 11 -10 2 0 4 5 4 10 0 6 -5 10 -11 10 -5 0
-7 -4 -4 -10z"/>
<path d="M2436 3535 c-3 -9 0 -15 8 -15 7 0 13 7 13 15 0 8 -4 15 -8 15 -4 0
-9 -7 -13 -15z"/>
<path d="M2613 3530 c-11 -16 -10 -18 2 -14 8 4 15 12 15 20 0 19 -3 18 -17
-6z"/>
<path d="M2721 3534 c0 -11 3 -14 6 -6 3 7 2 16 -1 19 -3 4 -6 -2 -5 -13z"/>
<path d="M2950 3532 c0 -7 -7 -12 -15 -12 -8 0 -15 -7 -15 -15 0 -13 4 -12 22
5 12 11 18 23 15 27 -4 3 -7 1 -7 -5z"/>
<path d="M2369 3510 c-17 -14 -20 -19 -9 -20 9 0 23 9 33 20 22 26 6 26 -24 0z"/>
<path d="M2317 3494 c-10 -13 -14 -24 -10 -24 9 0 36 40 31 45 -2 2 -11 -8
-21 -21z"/>
<path d="M2470 3510 c0 -5 5 -10 11 -10 5 0 7 5 4 10 -3 6 -8 10 -11 10 -2 0
-4 -4 -4 -10z"/>
<path d="M2682 3504 c-7 -8 -12 -19 -10 -23 2 -5 11 2 21 15 19 26 10 33 -11
8z"/>
<path d="M2825 3502 c-22 -20 -30 -42 -15 -42 6 0 10 7 10 15 0 8 4 15 9 15 5
0 11 7 15 15 7 19 6 18 -19 -3z"/>
<path d="M2056 3473 c-6 -14 -5 -15 5 -6 7 7 10 15 7 18 -3 3 -9 -2 -12 -12z"/>
<path d="M2468 3459 c-15 -16 -23 -29 -18 -29 13 0 50 37 50 50 0 14 -1 13
-32 -21z"/>
<path d="M2120 3476 c0 -2 7 -7 16 -10 8 -3 12 -2 9 4 -6 10 -25 14 -25 6z"/>
<path d="M2335 3470 c-3 -6 1 -7 9 -4 18 7 21 14 7 14 -6 0 -13 -4 -16 -10z"/>
<path d="M2720 3476 c0 -2 8 -10 18 -17 15 -13 16 -12 3 4 -13 16 -21 21 -21
13z"/>
<path d="M2370 3459 c0 -5 5 -7 10 -4 6 3 10 8 10 11 0 2 -4 4 -10 4 -5 0 -10
-5 -10 -11z"/>
<path d="M2826 3443 c-6 -14 -5 -15 5 -6 7 7 10 15 7 18 -3 3 -9 -2 -12 -12z"/>
<path d="M2108 3443 c12 -2 30 -2 40 0 9 3 -1 5 -23 4 -22 0 -30 -2 -17 -4z"/>
<path d="M2855 3420 c3 -5 8 -10 11 -10 2 0 4 5 4 10 0 6 -5 10 -11 10 -5 0
-7 -4 -4 -10z"/>
<path d="M2143 3413 c10 -9 56 -10 51 -1 -3 4 -17 8 -31 8 -15 0 -23 -3 -20
-7z"/>
<path d="M2390 3410 c-9 -6 -10 -10 -3 -10 6 0 15 5 18 10 8 12 4 12 -15 0z"/>
<path d="M780 3310 c0 -6 7 -13 15 -16 20 -8 19 -34 -1 -34 -8 0 -12 -5 -8
-11 11 -19 38 16 29 38 -5 10 -7 21 -7 26 1 4 -5 7 -13 7 -8 0 -15 -5 -15 -10z"/>
<path d="M760 3279 c0 -5 -13 -24 -30 -42 -16 -17 -27 -33 -25 -35 6 -6 64 62
65 76 0 6 -2 12 -5 12 -3 0 -5 -5 -5 -11z"/>
<path d="M649 3247 c-16 -13 -25 -15 -35 -6 -9 7 -14 8 -14 1 0 -25 54 -23 63
3 3 8 15 11 31 8 14 -3 26 -1 26 3 0 16 -48 10 -71 -9z"/>
<path d="M1106 3255 c-3 -9 0 -15 9 -15 9 0 12 6 9 15 -4 8 -7 15 -9 15 -2 0
-5 -7 -9 -15z"/>
<path d="M437 3223 c-10 -9 -9 -23 2 -23 5 0 11 7 15 15 5 15 -5 20 -17 8z"/>
<path d="M530 3215 c0 -8 -4 -15 -10 -15 -5 0 -10 -5 -10 -11 0 -14 18 -2 30
22 7 13 7 19 0 19 -5 0 -10 -7 -10 -15z"/>
<path d="M752 3214 c-7 -8 -8 -14 -3 -14 10 0 25 19 20 25 -2 1 -10 -3 -17
-11z"/>
<path d="M1120 3220 c-9 -6 -10 -10 -3 -10 6 0 15 5 18 10 8 12 4 12 -15 0z"/>
<path d="M1021 3204 c0 -11 3 -14 6 -6 3 7 2 16 -1 19 -3 4 -6 -2 -5 -13z"/>
<path d="M1059 3201 c-30 -33 -32 -45 -6 -25 15 10 27 25 27 32 0 15 -1 15
-21 -7z"/>
<path d="M553 3186 c-25 -26 -32 -46 -8 -22 9 8 23 13 33 10 14 -5 15 -4 2 5
-13 10 -13 12 0 21 8 5 11 10 5 10 -5 0 -20 -11 -32 -24z"/>
<path d="M365 3180 c-3 -5 -1 -10 4 -10 6 0 11 5 11 10 0 6 -2 10 -4 10 -3 0
-8 -4 -11 -10z"/>
<path d="M387 3160 c-9 -11 -13 -20 -7 -20 5 0 14 9 20 20 6 11 9 20 8 20 -2
0 -11 -9 -21 -20z"/>
<path d="M430 3170 c12 -8 12 -10 -3 -16 -9 -3 -17 -10 -17 -16 0 -10 49 23
50 35 0 4 -10 7 -22 7 -18 0 -20 -2 -8 -10z"/>
<path d="M1110 3172 c-14 -2 -29 -8 -35 -13 -7 -7 -4 -8 9 -3 11 4 21 2 27 -7
6 -10 9 -10 9 -1 0 6 7 12 16 12 10 0 14 -5 10 -15 -4 -13 -2 -13 14 -5 24 13
37 32 15 24 -8 -4 -21 -2 -28 3 -6 5 -23 7 -37 5z"/>
<path d="M700 3150 c-9 -6 -10 -10 -3 -10 6 0 15 5 18 10 8 12 4 12 -15 0z"/>
<path d="M556 3135 c-3 -8 -1 -15 4 -15 6 0 10 7 10 15 0 8 -2 15 -4 15 -2 0
-6 -7 -10 -15z"/>
<path d="M733 3135 c-10 -11 -9 -13 6 -12 11 1 17 7 14 14 -6 16 -5 16 -20 -2z"/>
<path d="M785 3140 c-3 -5 -1 -10 4 -10 6 0 11 5 11 10 0 6 -2 10 -4 10 -3 0
-8 -4 -11 -10z"/>
<path d="M995 3129 c-4 -6 -5 -12 -2 -15 2 -3 7 2 10 11 7 17 1 20 -8 4z"/>
<path d="M1041 3124 c0 -11 3 -14 6 -6 3 7 2 16 -1 19 -3 4 -6 -2 -5 -13z"/>
<path d="M436 3119 c3 -6 3 -14 -2 -18 -5 -3 -18 -17 -29 -30 l-20 -24 22 12
c18 9 22 8 26 -7 3 -9 5 -3 4 13 -2 23 2 30 15 29 10 -1 15 3 12 8 -4 6 0 14
7 19 10 6 6 9 -14 9 -18 0 -26 -4 -21 -11z"/>
<path d="M670 3115 c-7 -9 -8 -15 -2 -15 5 0 12 7 16 15 3 8 4 15 2 15 -2 0
-9 -7 -16 -15z"/>
<path d="M889 3103 c-11 -21 -11 -27 -1 -31 10 -3 10 -7 0 -20 -12 -13 -11
-14 8 -2 12 7 26 21 33 32 10 17 10 17 -8 6 -25 -15 -38 -4 -21 17 7 9 11 18
8 20 -3 3 -11 -7 -19 -22z"/>
<path d="M1166 3105 c-8 -8 -19 -15 -25 -15 -6 0 -11 -6 -11 -14 0 -8 -6 -16
-12 -19 -7 -2 -11 -7 -8 -10 3 -3 23 12 44 34 22 21 37 39 33 39 -3 0 -12 -7
-21 -15z"/>
<path d="M293 3098 c-22 -29 -24 -41 -3 -20 12 13 20 25 17 28 -2 2 -9 -1 -14
-8z"/>
<path d="M373 3085 c-3 -9 -3 -19 1 -22 3 -4 6 1 6 10 0 8 6 18 13 20 9 4 9 6
-1 6 -7 1 -15 -6 -19 -14z"/>
<path d="M510 3085 c0 -8 2 -15 4 -15 2 0 6 7 10 15 3 8 1 15 -4 15 -6 0 -10
-7 -10 -15z"/>
<path d="M600 3085 c0 -8 4 -15 8 -15 5 0 9 7 9 15 0 8 -4 15 -9 15 -4 0 -8
-7 -8 -15z"/>
<path d="M741 3084 c0 -11 3 -14 6 -6 3 7 2 16 -1 19 -3 4 -6 -2 -5 -13z"/>
<path d="M1375 3090 c-3 -5 -1 -10 4 -10 6 0 11 5 11 10 0 6 -2 10 -4 10 -3 0
-8 -4 -11 -10z"/>
<path d="M1177 3070 c-3 -11 -3 -20 -1 -20 2 0 8 9 14 20 6 11 7 20 2 20 -6 0
-12 -9 -15 -20z"/>
<path d="M540 3070 c-9 -6 -10 -10 -3 -10 6 0 15 5 18 10 8 12 4 12 -15 0z"/>
<path d="M477 3051 c-3 -13 0 -18 7 -15 7 3 13 11 13 19 0 22 -14 18 -20 -4z"/>
<path d="M572 3055 c-11 -12 -10 -15 3 -15 8 0 15 7 15 15 0 18 -2 18 -18 0z"/>
<path d="M710 3061 c0 -5 -8 -12 -17 -14 -15 -4 -15 -5 -2 -6 9 0 22 6 29 14
9 10 9 15 1 15 -6 0 -11 -4 -11 -9z"/>
<path d="M1390 3060 c-9 -6 -10 -10 -3 -10 6 0 15 5 18 10 8 12 4 12 -15 0z"/>
<path d="M242 3044 c-7 -8 -8 -14 -3 -14 10 0 25 19 20 25 -2 1 -10 -3 -17
-11z"/>
<path d="M600 3035 c0 -8 5 -15 10 -15 6 0 10 7 10 15 0 8 -4 15 -10 15 -5 0
-10 -7 -10 -15z"/>
<path d="M840 3041 c0 -6 4 -13 10 -16 6 -3 7 1 4 9 -7 18 -14 21 -14 7z"/>
<path d="M281 3024 c0 -11 3 -14 6 -6 3 7 2 16 -1 19 -3 4 -6 -2 -5 -13z"/>
<path d="M989 3013 c-13 -16 -12 -17 4 -4 9 7 17 15 17 17 0 8 -8 3 -21 -13z"/>
<path d="M210 3000 c-15 -13 -18 -20 -9 -20 8 0 20 9 27 20 7 11 11 20 9 20
-2 0 -14 -9 -27 -20z"/>
<path d="M310 3010 c-8 -5 -10 -10 -5 -10 6 0 17 5 25 10 8 5 11 10 5 10 -5 0
-17 -5 -25 -10z"/>
<path d="M1160 2999 c0 -5 5 -7 10 -4 6 3 10 8 10 11 0 2 -4 4 -10 4 -5 0 -10
-5 -10 -11z"/>
<path d="M238 2983 c7 -3 16 -2 19 1 4 3 -2 6 -13 5 -11 0 -14 -3 -6 -6z"/>
<path d="M285 2979 c-4 -6 -5 -12 -2 -15 2 -3 7 2 10 11 7 17 1 20 -8 4z"/>
<path d="M443 2983 c9 -2 25 -2 35 0 9 3 1 5 -18 5 -19 0 -27 -2 -17 -5z"/>
<path d="M820 2970 c-9 -6 -10 -10 -3 -10 6 0 15 5 18 10 8 12 4 12 -15 0z"/>
<path d="M887 2969 c7 -7 15 -10 18 -7 3 3 -2 9 -12 12 -14 6 -15 5 -6 -5z"/>
<path d="M170 2960 c-8 -5 -12 -12 -9 -15 4 -3 12 1 19 10 14 17 11 19 -10 5z"/>
<path d="M613 2963 c9 -2 25 -2 35 0 9 3 1 5 -18 5 -19 0 -27 -2 -17 -5z"/>
<path d="M250 2949 c0 -7 -10 -9 -25 -7 -14 3 -28 1 -31 -3 -3 -5 10 -9 29 -9
22 0 37 6 41 15 3 8 1 15 -4 15 -6 0 -10 -5 -10 -11z"/>
<path d="M438 2953 c7 -3 16 -2 19 1 4 3 -2 6 -13 5 -11 0 -14 -3 -6 -6z"/>
<path d="M486 2945 c-3 -9 0 -15 9 -15 9 0 12 6 9 15 -4 8 -7 15 -9 15 -2 0
-5 -7 -9 -15z"/>
<path d="M709 2943 c-13 -16 -12 -17 4 -4 9 7 17 15 17 17 0 8 -8 3 -21 -13z"/>
<path d="M755 2942 c-5 -4 -17 -16 -25 -27 -11 -15 -7 -14 13 4 24 22 32 31
25 31 -2 0 -7 -4 -13 -8z"/>
<path d="M795 2940 c-3 -6 1 -7 9 -4 18 7 21 14 7 14 -6 0 -13 -4 -16 -10z"/>
<path d="M845 2939 c-4 -6 -17 -14 -29 -19 -20 -8 -20 -9 -1 -9 11 -1 26 8 33
19 7 11 10 20 8 20 -3 0 -8 -5 -11 -11z"/>
<path d="M885 2939 c-4 -6 -4 -13 -1 -16 3 -4 6 -1 6 5 0 6 8 13 18 15 15 4
15 5 0 6 -9 0 -20 -4 -23 -10z"/>
<path d="M1283 2935 c0 -8 4 -15 8 -15 4 0 9 7 13 15 3 9 0 15 -8 15 -7 0 -13
-7 -13 -15z"/>
<path d="M1380 2935 c-10 -12 -10 -15 2 -15 8 0 15 7 15 15 0 8 -1 15 -2 15
-2 0 -8 -7 -15 -15z"/>
<path d="M370 2925 c-9 -10 -9 -15 -1 -15 6 0 11 4 11 9 0 5 8 12 18 14 14 4
14 5 1 6 -9 0 -22 -6 -29 -14z"/>
<path d="M600 2926 c0 -17 33 -27 51 -14 12 7 11 9 -1 7 -29 -3 -41 1 -35 11
3 6 1 10 -4 10 -6 0 -11 -6 -11 -14z"/>
<path d="M1119 2921 c8 -5 10 -14 6 -21 -6 -10 -10 -10 -19 2 -10 14 -13 14
-26 0 -13 -14 -12 -15 3 -9 11 4 20 0 27 -13 6 -11 18 -19 28 -19 15 1 15 2
-1 6 -22 6 -16 29 7 27 9 -1 16 0 16 1 0 9 -33 35 -43 35 -8 0 -7 -3 2 -9z"/>
<path d="M445 2910 c-13 -6 -15 -9 -5 -9 8 0 22 4 30 9 18 12 2 12 -25 0z"/>
<path d="M1442 2900 c-18 -29 -15 -38 4 -12 9 13 14 25 12 27 -2 2 -9 -5 -16
-15z"/>
<path d="M1490 2909 c0 -5 5 -7 10 -4 6 3 10 8 10 11 0 2 -4 4 -10 4 -5 0 -10
-5 -10 -11z"/>
<path d="M250 2895 c0 -8 2 -15 4 -15 2 0 6 7 10 15 3 8 1 15 -4 15 -6 0 -10
-7 -10 -15z"/>
<path d="M290 2885 c-7 -9 -11 -17 -9 -20 3 -2 10 5 17 15 14 24 10 26 -8 5z"/>
<path d="M750 2890 c-9 -6 -10 -10 -3 -10 6 0 15 5 18 10 8 12 4 12 -15 0z"/>
<path d="M795 2890 c-3 -5 1 -10 9 -10 9 0 16 5 16 10 0 6 -4 10 -9 10 -6 0
-13 -4 -16 -10z"/>
<path d="M930 2890 c-9 -6 -10 -10 -3 -10 6 0 15 5 18 10 8 12 4 12 -15 0z"/>
<path d="M1288 2893 c7 -3 16 -2 19 1 4 3 -2 6 -13 5 -11 0 -14 -3 -6 -6z"/>
<path d="M1388 2893 c7 -3 16 -2 19 1 4 3 -2 6 -13 5 -11 0 -14 -3 -6 -6z"/>
<path d="M326 2874 c-5 -14 -4 -15 9 -4 17 14 19 20 6 20 -5 0 -12 -7 -15 -16z"/>
<path d="M457 2879 c7 -7 15 -10 18 -7 3 3 -2 9 -12 12 -14 6 -15 5 -6 -5z"/>
<path d="M560 2880 c-9 -6 -10 -10 -3 -10 6 0 15 5 18 10 8 12 4 12 -15 0z"/>
<path d="M610 2879 c0 -5 5 -7 10 -4 6 3 10 8 10 11 0 2 -4 4 -10 4 -5 0 -10
-5 -10 -11z"/>
<path d="M966 2873 c-6 -14 -5 -15 5 -6 7 7 10 15 7 18 -3 3 -9 -2 -12 -12z"/>
<path d="M1192 2874 c-7 -8 -8 -14 -3 -14 10 0 25 19 20 25 -2 1 -10 -3 -17
-11z"/>
<path d="M1232 2872 c-8 -6 -2 -9 18 -9 20 0 26 3 18 9 -7 4 -15 8 -18 8 -3 0
-11 -4 -18 -8z"/>
<path d="M1301 2869 c12 -8 12 -10 -1 -19 -8 -5 -10 -10 -4 -10 6 0 18 8 27
18 14 16 14 17 -10 19 -19 1 -22 -1 -12 -8z"/>
<path d="M680 2860 c-9 -6 -10 -10 -3 -10 6 0 15 5 18 10 8 12 4 12 -15 0z"/>
<path d="M730 2862 c-8 -4 -16 -14 -18 -22 -3 -11 2 -10 17 4 28 26 29 30 1
18z"/>
<path d="M148 2839 c-21 -23 -6 -26 16 -3 9 8 16 17 16 20 0 9 -16 1 -32 -17z"/>
<path d="M292 2840 c-17 -27 -15 -35 4 -16 8 9 14 21 12 26 -2 6 -9 1 -16 -10z"/>
<path d="M811 2844 c0 -11 3 -14 6 -6 3 7 2 16 -1 19 -3 4 -6 -2 -5 -13z"/>
<path d="M930 2840 c-9 -6 -10 -10 -3 -10 6 0 15 5 18 10 8 12 4 12 -15 0z"/>
<path d="M1070 2836 c0 -8 -8 -17 -17 -19 -10 -2 -8 -3 5 -2 12 1 27 -5 32
-14 8 -14 9 -14 10 2 0 9 -5 17 -11 17 -6 0 -9 7 -5 15 3 8 1 15 -4 15 -6 0
-10 -6 -10 -14z"/>
<path d="M1115 2840 c-3 -6 1 -7 9 -4 18 7 21 14 7 14 -6 0 -13 -4 -16 -10z"/>
<path d="M198 2833 c7 -3 16 -2 19 1 4 3 -2 6 -13 5 -11 0 -14 -3 -6 -6z"/>
<path d="M221 2813 c-16 -17 -12 -23 11 -14 10 3 14 11 10 17 -5 9 -11 8 -21
-3z"/>
<path d="M416 2815 c-3 -8 -1 -15 3 -15 5 0 11 7 15 15 3 8 1 15 -3 15 -5 0
-11 -7 -15 -15z"/>
<path d="M1281 2820 c-9 -5 -4 -7 13 -7 29 0 32 2 13 10 -8 3 -20 2 -26 -3z"/>
<path d="M1465 2820 c-3 -5 1 -10 10 -10 9 0 13 5 10 10 -3 6 -8 10 -10 10 -2
0 -7 -4 -10 -10z"/>
<path d="M890 2795 c-13 -14 -19 -25 -13 -25 6 0 18 11 27 25 9 14 15 25 13
25 -2 0 -14 -11 -27 -25z"/>
<path d="M993 2799 c-1 -12 -1 -20 0 -18 2 2 9 12 16 22 11 14 11 17 -1 17 -7
0 -14 -10 -15 -21z"/>
<path d="M1518 2813 c6 -2 18 -2 25 0 6 3 1 5 -13 5 -14 0 -19 -2 -12 -5z"/>
<path d="M160 2795 c0 -8 2 -15 4 -15 2 0 6 7 10 15 3 8 1 15 -4 15 -6 0 -10
-7 -10 -15z"/>
<path d="M301 2794 c0 -11 3 -14 6 -6 3 7 2 16 -1 19 -3 4 -6 -2 -5 -13z"/>
<path d="M716 2795 c-3 -8 -1 -15 4 -15 6 0 10 7 10 15 0 8 -2 15 -4 15 -2 0
-6 -7 -10 -15z"/>
<path d="M1300 2785 c-7 -9 -11 -17 -9 -20 3 -2 10 5 17 15 14 24 10 26 -8 5z"/>
<path d="M1485 2790 c-3 -5 -1 -10 4 -10 6 0 11 5 11 10 0 6 -2 10 -4 10 -3 0
-8 -4 -11 -10z"/>
<path d="M1032 2773 c2 -9 10 -18 18 -20 12 -4 13 -3 1 5 -7 5 -10 15 -7 21 4
6 2 11 -4 11 -6 0 -10 -8 -8 -17z"/>
<path d="M1385 2779 c-4 -6 -5 -12 -2 -15 2 -3 7 2 10 11 7 17 1 20 -8 4z"/>
<path d="M1520 2775 c0 -8 2 -15 4 -15 2 0 6 7 10 15 3 8 1 15 -4 15 -6 0 -10
-7 -10 -15z"/>
<path d="M180 2770 c0 -5 7 -7 15 -4 8 4 15 8 15 10 0 2 -7 4 -15 4 -8 0 -15
-4 -15 -10z"/>
<path d="M328 2773 c7 -3 16 -2 19 1 4 3 -2 6 -13 5 -11 0 -14 -3 -6 -6z"/>
<path d="M425 2769 c-11 -16 -1 -19 13 -3 7 8 8 14 3 14 -5 0 -13 -5 -16 -11z"/>
<path d="M475 2770 c-3 -6 1 -7 9 -4 18 7 21 14 7 14 -6 0 -13 -4 -16 -10z"/>
<path d="M736 2763 c-6 -14 -5 -15 5 -6 7 7 10 15 7 18 -3 3 -9 -2 -12 -12z"/>
<path d="M1316 2754 c-23 -23 -20 -30 4 -9 11 10 20 20 20 22 0 7 -9 2 -24
-13z"/>
<path d="M1083 2745 c0 -8 4 -12 9 -9 4 3 8 9 8 15 0 5 -4 9 -8 9 -5 0 -9 -7
-9 -15z"/>
<path d="M1130 2745 c0 -8 4 -15 8 -15 5 0 9 7 9 15 0 8 -4 15 -9 15 -4 0 -8
-7 -8 -15z"/>
<path d="M1172 2740 c-17 -27 -15 -35 4 -16 8 9 14 21 12 26 -2 6 -9 1 -16
-10z"/>
<path d="M1220 2744 c0 -8 5 -12 10 -9 6 3 10 10 10 16 0 5 -4 9 -10 9 -5 0
-10 -7 -10 -16z"/>
<path d="M1441 2737 c-13 -21 -12 -21 5 -5 10 10 16 20 13 22 -3 3 -11 -5 -18
-17z"/>
<path d="M1475 2730 c-3 -6 1 -7 9 -4 18 7 21 14 7 14 -6 0 -13 -4 -16 -10z"/>
<path d="M166 2723 c6 -4 14 -15 17 -23 5 -11 6 -9 4 4 -1 11 -9 21 -17 23
-10 3 -11 2 -4 -4z"/>
<path d="M281 2704 c0 -11 3 -14 6 -6 3 7 2 16 -1 19 -3 4 -6 -2 -5 -13z"/>
<path d="M1310 2702 c0 -7 -7 -12 -15 -12 -9 0 -12 -6 -8 -15 5 -13 8 -12 20
5 8 12 12 24 9 27 -3 4 -6 1 -6 -5z"/>
<path d="M1531 2693 c-7 -8 -11 -16 -8 -19 2 -2 10 2 17 11 17 20 9 27 -9 8z"/>
<path d="M120 2690 c-9 -6 -10 -10 -3 -10 6 0 15 5 18 10 8 12 4 12 -15 0z"/>
<path d="M65 2676 c-18 -19 -26 -36 -18 -36 9 0 37 40 31 45 -2 2 -8 -2 -13
-9z"/>
<path d="M156 2675 c-3 -9 0 -15 9 -15 9 0 12 6 9 15 -4 8 -7 15 -9 15 -2 0
-5 -7 -9 -15z"/>
<path d="M242 2614 c-7 -8 -8 -14 -3 -14 10 0 25 19 20 25 -2 1 -10 -3 -17
-11z"/>
<path d="M25 2579 c-4 -6 -5 -12 -2 -15 2 -3 7 2 10 11 7 17 1 20 -8 4z"/>
<path d="M215 2580 c-16 -7 -17 -9 -3 -9 9 -1 20 4 23 9 7 11 7 11 -20 0z"/>
<path d="M260 2580 c-8 -5 -10 -10 -5 -10 6 0 17 5 25 10 8 5 11 10 5 10 -5 0
-17 -5 -25 -10z"/>
<path d="M390 2569 c0 -5 5 -7 10 -4 6 3 10 8 10 11 0 2 -4 4 -10 4 -5 0 -10
-5 -10 -11z"/>
<path d="M1435 2570 c-3 -6 1 -7 9 -4 18 7 21 14 7 14 -6 0 -13 -4 -16 -10z"/>
<path d="M470 2560 c-8 -5 -12 -12 -9 -15 4 -3 12 1 19 10 14 17 11 19 -10 5z"/>
<path d="M1466 2553 c-6 -14 -5 -15 5 -6 7 7 10 15 7 18 -3 3 -9 -2 -12 -12z"/>
<path d="M174 2538 c0 -10 5 -18 11 -18 6 0 11 8 11 18 0 10 -5 19 -11 19 -6
0 -11 -9 -11 -19z"/>
<path d="M276 2545 c-3 -8 -1 -15 4 -15 6 0 10 7 10 15 0 8 -2 15 -4 15 -2 0
-6 -7 -10 -15z"/>
<path d="M1355 2530 c-10 -11 -15 -20 -12 -20 4 0 16 9 27 20 11 11 16 20 12
20 -5 0 -17 -9 -27 -20z"/>
<path d="M1585 2540 c3 -5 8 -10 11 -10 2 0 4 5 4 10 0 6 -5 10 -11 10 -5 0
-7 -4 -4 -10z"/>
<path d="M1300 2520 c-8 -5 -12 -12 -9 -15 4 -3 12 1 19 10 14 17 11 19 -10 5z"/>
<path d="M1161 2504 c0 -11 3 -14 6 -6 3 7 2 16 -1 19 -3 4 -6 -2 -5 -13z"/>
<path d="M1390 2509 c0 -5 5 -7 10 -4 6 3 10 8 10 11 0 2 -4 4 -10 4 -5 0 -10
-5 -10 -11z"/>
<path d="M50 2495 c0 -8 2 -15 4 -15 2 0 6 7 10 15 3 8 1 15 -4 15 -6 0 -10
-7 -10 -15z"/>
<path d="M16 2465 c-3 -8 -1 -15 3 -15 5 0 11 7 15 15 3 8 1 15 -3 15 -5 0
-11 -7 -15 -15z"/>
<path d="M243 2455 c-6 -14 -7 -23 -2 -19 13 8 31 44 22 44 -4 0 -13 -11 -20
-25z"/>
<path d="M106 2453 c-6 -14 -5 -15 5 -6 7 7 10 15 7 18 -3 3 -9 -2 -12 -12z"/>
<path d="M1290 2459 c0 -5 5 -7 10 -4 6 3 10 8 10 11 0 2 -4 4 -10 4 -5 0 -10
-5 -10 -11z"/>
<path d="M1340 2459 c0 -5 5 -7 10 -4 6 3 10 8 10 11 0 2 -4 4 -10 4 -5 0 -10
-5 -10 -11z"/>
<path d="M1422 2444 c-7 -8 -8 -14 -3 -14 10 0 25 19 20 25 -2 1 -10 -3 -17
-11z"/>
<path d="M133 2430 c-11 -16 -10 -18 2 -14 8 4 15 12 15 20 0 19 -3 18 -17 -6z"/>
<path d="M1460 2440 c-9 -6 -10 -10 -3 -10 6 0 15 5 18 10 8 12 4 12 -15 0z"/>
<path d="M40 2425 c-11 -13 -10 -14 4 -9 9 3 16 10 16 15 0 13 -6 11 -20 -6z"/>
<path d="M1303 2420 c-11 -16 -10 -18 1 -14 15 6 30 34 18 34 -4 0 -13 -9 -19
-20z"/>
<path d="M1353 2433 c4 -3 2 -12 -4 -19 -8 -9 -5 -11 10 -7 12 3 19 9 16 13
-3 5 1 11 7 13 7 3 2 6 -11 6 -13 1 -21 -2 -18 -6z"/>
<path d="M1486 2425 c-3 -8 -1 -15 4 -15 6 0 10 7 10 15 0 8 -2 15 -4 15 -2 0
-6 -7 -10 -15z"/>
<path d="M1630 2425 c0 -8 4 -15 10 -15 5 0 7 7 4 15 -4 8 -8 15 -10 15 -2 0
-4 -7 -4 -15z"/>
<path d="M433 2410 c-11 -16 -10 -18 2 -14 8 4 15 12 15 20 0 19 -3 18 -17 -6z"/>
<path d="M525 2420 c3 -5 8 -10 11 -10 2 0 4 5 4 10 0 6 -5 10 -11 10 -5 0 -7
-4 -4 -10z"/>
<path d="M1255 2410 c-3 -6 1 -7 9 -4 18 7 21 14 7 14 -6 0 -13 -4 -16 -10z"/>
<path d="M1434 2405 c-3 -8 0 -21 8 -29 13 -12 16 -11 26 4 9 15 8 17 -10 12
-17 -4 -20 -2 -15 11 4 10 4 17 1 17 -2 0 -7 -7 -10 -15z"/>
<path d="M1518 2413 c7 -3 16 -2 19 1 4 3 -2 6 -13 5 -11 0 -14 -3 -6 -6z"/>
<path d="M1569 2403 c-13 -16 -12 -17 4 -4 9 7 17 15 17 17 0 8 -8 3 -21 -13z"/>
<path d="M73 2393 c9 -2 23 -2 30 0 6 3 -1 5 -18 5 -16 0 -22 -2 -12 -5z"/>
<path d="M136 2389 c3 -6 0 -15 -7 -20 -9 -6 -10 -9 -2 -9 7 0 16 6 20 14 4 7
15 16 23 19 9 3 3 6 -13 6 -18 1 -26 -3 -21 -10z"/>
<path d="M198 2393 c7 -3 16 -2 19 1 4 3 -2 6 -13 5 -11 0 -14 -3 -6 -6z"/>
<path d="M1600 2390 c-9 -6 -10 -10 -3 -10 6 0 15 5 18 10 8 12 4 12 -15 0z"/>
<path d="M1357 2370 c3 -11 8 -20 12 -20 4 0 7 9 7 20 0 11 -6 20 -12 20 -7 0
-10 -8 -7 -20z"/>
<path d="M75 2370 c-3 -6 1 -7 9 -4 18 7 21 14 7 14 -6 0 -13 -4 -16 -10z"/>
<path d="M395 2369 c-4 -6 -4 -13 -1 -16 3 -4 6 -1 6 5 0 6 8 13 18 15 15 4
15 5 0 6 -9 0 -20 -4 -23 -10z"/>
<path d="M333 2350 c-11 -16 -10 -18 1 -14 15 6 30 34 18 34 -4 0 -13 -9 -19
-20z"/>
<path d="M43 2322 c-10 -18 -9 -19 20 -13 17 4 32 12 33 19 1 7 0 8 -3 2 -6
-13 -30 -13 -35 0 -2 6 -8 2 -15 -8z"/>
<path d="M140 2332 c0 -7 -6 -12 -13 -12 -8 0 -14 -6 -14 -14 0 -11 4 -12 19
-3 15 10 21 9 28 -3 5 -8 10 -10 10 -5 -1 6 -7 19 -15 29 -8 11 -15 14 -15 8z"/>
<path d="M1225 2320 c-16 -17 -16 -20 -3 -15 9 4 19 13 22 21 7 19 2 18 -19
-6z"/>
<path d="M567 2306 c-4 -10 -1 -13 9 -9 7 3 14 9 14 14 0 14 -17 10 -23 -5z"/>
<path d="M426 2294 c-11 -8 -16 -14 -10 -14 13 0 39 18 34 24 -3 2 -14 -2 -24
-10z"/>
<path d="M190 2290 c-9 -6 -10 -10 -3 -10 6 0 15 5 18 10 8 12 4 12 -15 0z"/>
<path d="M51 2274 c0 -11 3 -14 6 -6 3 7 2 16 -1 19 -3 4 -6 -2 -5 -13z"/>
<path d="M86 2275 c4 -8 8 -15 10 -15 2 0 4 7 4 15 0 8 -4 15 -10 15 -5 0 -7
-7 -4 -15z"/>
<path d="M230 2275 c0 -8 2 -15 4 -15 2 0 6 7 10 15 3 8 1 15 -4 15 -6 0 -10
-7 -10 -15z"/>
<path d="M571 2260 c-31 -26 -17 -26 16 0 14 11 22 20 17 20 -5 -1 -20 -10
-33 -20z"/>
<path d="M1308 2273 c7 -3 16 -2 19 1 4 3 -2 6 -13 5 -11 0 -14 -3 -6 -6z"/>
<path d="M1356 2268 c3 -5 10 -6 15 -3 13 9 11 12 -6 12 -8 0 -12 -4 -9 -9z"/>
<path d="M1574 2271 c5 -8 3 -17 -5 -22 -8 -5 -9 -9 -4 -9 6 0 16 4 23 9 10 6
9 11 -4 22 -14 11 -16 11 -10 0z"/>
<path d="M526 2253 c-6 -14 -5 -15 5 -6 7 7 10 15 7 18 -3 3 -9 -2 -12 -12z"/>
<path d="M475 2250 c-3 -5 1 -10 10 -10 9 0 13 5 10 10 -3 6 -8 10 -10 10 -2
0 -7 -4 -10 -10z"/>
<path d="M606 2245 c-8 -8 -20 -15 -26 -15 -6 0 -9 -4 -6 -9 3 -5 15 -7 26 -4
12 3 18 8 15 11 -2 3 0 11 6 19 15 18 4 17 -15 -2z"/>
<path d="M1381 2240 c-13 -10 -21 -23 -19 -28 1 -5 13 4 26 20 27 33 24 36 -7
8z"/>
<path d="M295 2240 c-4 -6 3 -10 14 -10 25 0 27 6 6 13 -8 4 -17 2 -20 -3z"/>
<path d="M1110 2239 c0 -5 5 -7 10 -4 6 3 10 8 10 11 0 2 -4 4 -10 4 -5 0 -10
-5 -10 -11z"/>
<path d="M1462 2230 c-19 -30 -14 -36 8 -10 22 25 24 30 12 30 -4 0 -13 -9
-20 -20z"/>
<path d="M1517 2237 c-3 -8 1 -14 8 -14 7 0 11 6 8 14 -3 7 -6 13 -8 13 -2 0
-5 -6 -8 -13z"/>
<path d="M1606 2233 c-6 -14 -5 -15 5 -6 7 7 10 15 7 18 -3 3 -9 -2 -12 -12z"/>
<path d="M138 2233 c7 -3 16 -2 19 1 4 3 -2 6 -13 5 -11 0 -14 -3 -6 -6z"/>
<path d="M230 2231 c0 -7 7 -19 15 -27 19 -20 19 -5 0 20 -9 11 -15 14 -15 7z"/>
<path d="M45 2220 c-3 -5 -1 -10 4 -10 6 0 11 5 11 10 0 6 -2 10 -4 10 -3 0
-8 -4 -11 -10z"/>
<path d="M69 2199 c-13 -11 -17 -19 -9 -19 7 0 18 7 25 17 7 9 14 12 18 6 4
-5 -3 -20 -14 -31 -11 -12 -16 -22 -12 -22 9 0 53 45 53 53 0 15 -42 12 -61
-4z"/>
<path d="M305 2210 c-3 -6 1 -7 9 -4 18 7 21 14 7 14 -6 0 -13 -4 -16 -10z"/>
<path d="M521 2197 c-13 -21 -12 -21 5 -5 10 10 16 20 13 22 -3 3 -11 -5 -18
-17z"/>
<path d="M156 2193 c-6 -14 -5 -15 5 -6 7 7 10 15 7 18 -3 3 -9 -2 -12 -12z"/>
<path d="M198 2196 c-20 -14 -24 -46 -7 -46 5 0 7 5 4 11 -4 5 1 19 11 30 20
22 17 24 -8 5z"/>
<path d="M980 2200 c-9 -6 -10 -10 -3 -10 6 0 15 5 18 10 8 12 4 12 -15 0z"/>
<path d="M1090 2169 c0 -5 5 -7 10 -4 6 3 10 8 10 11 0 2 -4 4 -10 4 -5 0 -10
-5 -10 -11z"/>
<path d="M242 2134 c-7 -8 -8 -14 -3 -14 10 0 25 19 20 25 -2 1 -10 -3 -17
-11z"/>
<path d="M1475 2130 c-3 -5 -1 -10 4 -10 6 0 11 5 11 10 0 6 -2 10 -4 10 -3 0
-8 -4 -11 -10z"/>
<path d="M1053 2123 c-7 -3 -13 -12 -13 -21 0 -11 3 -13 8 -6 4 6 14 13 22 16
7 2 10 7 5 10 -6 3 -16 3 -22 1z"/>
<path d="M1099 2113 c-13 -16 -12 -17 4 -4 9 7 17 15 17 17 0 8 -8 3 -21 -13z"/>
<path d="M1275 2120 c-3 -6 1 -7 9 -4 18 7 21 14 7 14 -6 0 -13 -4 -16 -10z"/>
<path d="M377 2109 c7 -7 15 -10 18 -7 3 3 -2 9 -12 12 -14 6 -15 5 -6 -5z"/>
<path d="M427 2109 c7 -7 15 -10 18 -7 3 3 -2 9 -12 12 -14 6 -15 5 -6 -5z"/>
<path d="M618 2113 c7 -3 16 -2 19 1 4 3 -2 6 -13 5 -11 0 -14 -3 -6 -6z"/>
<path d="M710 2105 c0 -8 2 -15 4 -15 2 0 6 7 10 15 3 8 1 15 -4 15 -6 0 -10
-7 -10 -15z"/>
<path d="M751 2097 c-13 -21 -12 -21 5 -5 10 10 16 20 13 22 -3 3 -11 -5 -18
-17z"/>
<path d="M880 2103 c-13 -15 -12 -16 4 -10 10 4 20 7 22 7 2 0 4 5 4 10 0 15
-13 12 -30 -7z"/>
<path d="M1216 2104 c-5 -14 -4 -15 9 -4 17 14 19 20 6 20 -5 0 -12 -7 -15
-16z"/>
<path d="M420 2080 c-8 -5 -12 -12 -9 -15 4 -3 12 1 19 10 14 17 11 19 -10 5z"/>
<path d="M920 2082 c0 -7 -6 -12 -13 -12 -7 0 -18 -9 -25 -21 -12 -18 -11 -19
6 -10 25 13 46 40 38 48 -3 3 -6 1 -6 -5z"/>
<path d="M1056 2073 c-6 -14 -5 -15 5 -6 7 7 10 15 7 18 -3 3 -9 -2 -12 -12z"/>
<path d="M263 2045 c-18 -19 -33 -39 -33 -45 0 -7 12 2 26 20 22 26 29 29 43
18 14 -12 15 -11 2 5 -13 16 -13 20 0 28 8 5 10 9 4 9 -5 0 -25 -16 -42 -35z"/>
<path d="M1167 2069 c7 -7 15 -10 18 -7 3 3 -2 9 -12 12 -14 6 -15 5 -6 -5z"/>
<path d="M366 2053 c-6 -14 -5 -15 5 -6 7 7 10 15 7 18 -3 3 -9 -2 -12 -12z"/>
<path d="M797 2059 c7 -7 15 -10 18 -7 3 3 -2 9 -12 12 -14 6 -15 5 -6 -5z"/>
<path d="M1265 2059 c-4 -6 -5 -12 -2 -15 2 -3 7 2 10 11 7 17 1 20 -8 4z"/>
<path d="M450 2050 c-9 -6 -10 -10 -3 -10 6 0 15 5 18 10 8 12 4 12 -15 0z"/>
<path d="M391 2034 c0 -11 3 -14 6 -6 3 7 2 16 -1 19 -3 4 -6 -2 -5 -13z"/>
<path d="M1121 2041 c-7 -5 -12 -14 -10 -20 2 -6 10 -2 17 9 14 22 13 23 -7
11z"/>
<path d="M338 2028 c-4 -9 3 -14 21 -15 14 -1 19 1 11 4 -8 3 -18 10 -21 15
-3 5 -9 3 -11 -4z"/>
<path d="M425 2019 c-4 -6 -17 -14 -29 -19 -19 -8 -19 -9 7 -9 26 -1 40 -21
14 -21 -8 0 -14 -7 -14 -15 0 -18 5 -19 20 -2 25 26 42 51 30 43 -20 -11 -36
3 -22 20 6 8 9 14 6 14 -3 0 -9 -5 -12 -11z"/>
<path d="M465 2020 c-3 -6 1 -7 9 -4 18 7 21 14 7 14 -6 0 -13 -4 -16 -10z"/>
<path d="M280 2005 c0 -8 2 -15 4 -15 2 0 6 7 10 15 3 8 1 15 -4 15 -6 0 -10
-7 -10 -15z"/>
<path d="M490 2003 c-14 -7 -18 -13 -10 -13 17 0 47 17 40 23 -3 2 -16 -2 -30
-10z"/>
<path d="M875 1993 c0 -24 4 -27 21 -15 22 15 22 37 0 37 -15 0 -21 -6 -21
-22z"/>
<path d="M620 1998 c0 -9 -6 -19 -12 -21 -10 -4 -10 -6 0 -6 14 -1 28 26 18
36 -3 4 -6 -1 -6 -9z"/>
<path d="M760 1998 c0 -9 -6 -19 -12 -21 -10 -4 -10 -6 0 -6 14 -1 28 26 18
36 -3 4 -6 -1 -6 -9z"/>
<path d="M940 1995 c0 -8 2 -15 4 -15 2 0 6 7 10 15 3 8 1 15 -4 15 -6 0 -10
-7 -10 -15z"/>
<path d="M1355 2000 c3 -5 8 -10 11 -10 2 0 4 5 4 10 0 6 -5 10 -11 10 -5 0
-7 -4 -4 -10z"/>
<path d="M196 1975 c-20 -15 -20 -15 0 -15 12 0 21 7 21 15 0 8 -1 15 -1 15
-1 0 -10 -7 -20 -15z"/>
<path d="M242 1975 c-10 -12 -10 -15 2 -15 7 0 16 7 20 15 7 19 -5 19 -22 0z"/>
<path d="M333 1971 c-10 -16 -9 -18 7 -14 11 3 16 11 13 19 -7 18 -6 18 -20
-5z"/>
<path d="M700 1980 c-9 -6 -10 -10 -3 -10 6 0 15 5 18 10 8 12 4 12 -15 0z"/>
<path d="M795 1980 c-9 -15 4 -30 23 -29 15 1 14 2 -1 6 -11 3 -16 11 -13 19
6 16 0 19 -9 4z"/>
<path d="M840 1980 c-9 -6 -10 -10 -3 -10 6 0 15 5 18 10 8 12 4 12 -15 0z"/>
<path d="M1024 1975 c-7 -18 -40 -20 -47 -2 -4 10 -6 10 -6 0 -1 -7 -7 -13
-15 -13 -7 0 -16 -9 -19 -19 -3 -14 -1 -18 9 -14 8 3 14 9 14 14 0 5 7 9 15 9
8 0 15 -5 15 -11 0 -6 7 -4 15 4 8 9 23 14 32 13 10 -2 12 -1 6 1 -7 3 -13 8
-13 13 0 5 6 11 13 13 9 4 9 6 -1 6 -7 1 -15 -6 -18 -14z"/>
<path d="M1065 1980 c-3 -6 1 -7 9 -4 18 7 21 14 7 14 -6 0 -13 -4 -16 -10z"/>
<path d="M465 1970 c-3 -5 -1 -10 4 -10 6 0 11 5 11 10 0 6 -2 10 -4 10 -3 0
-8 -4 -11 -10z"/>
<path d="M568 1973 c7 -3 16 -2 19 1 4 3 -2 6 -13 5 -11 0 -14 -3 -6 -6z"/>
<path d="M355 1945 c-11 -14 -27 -26 -35 -29 -13 -3 -13 -4 0 -5 14 -1 70 43
70 54 0 12 -17 2 -35 -20z"/>
<path d="M536 1951 c-12 -5 -15 -10 -9 -14 6 -4 16 0 23 8 14 17 13 17 -14 6z"/>
<path d="M578 1948 c-9 -5 -5 -7 11 -6 13 2 26 -3 28 -9 3 -7 -2 -13 -9 -13
-8 0 -15 -7 -15 -15 0 -8 4 -12 8 -9 4 2 12 -4 18 -13 10 -17 10 -17 11 0 0 9
-5 17 -11 17 -6 0 -1 13 10 28 l20 29 -29 0 c-16 0 -35 -4 -42 -9z"/>
<path d="M669 1948 c-9 -5 -4 -6 14 -2 19 4 27 2 27 -7 0 -10 2 -11 8 -3 4 7
18 14 32 16 14 3 4 5 -21 5 -26 0 -53 -4 -60 -9z"/>
<path d="M845 1952 c3 -3 0 -11 -6 -19 -16 -18 -4 -16 15 3 31 30 36 8 7 -26
-17 -19 -30 -39 -31 -44 0 -5 8 1 19 12 10 12 24 22 30 22 7 0 10 4 6 9 -3 6
4 15 15 21 31 17 24 28 -20 27 -22 0 -37 -3 -35 -5z"/>
<path d="M1078 1953 c7 -3 16 -2 19 1 4 3 -2 6 -13 5 -11 0 -14 -3 -6 -6z"/>
<path d="M1170 1949 c0 -5 5 -7 10 -4 6 3 10 8 10 11 0 2 -4 4 -10 4 -5 0 -10
-5 -10 -11z"/>
<path d="M1220 1948 c0 -9 -6 -19 -12 -21 -10 -4 -10 -6 0 -6 14 -1 28 26 18
36 -3 4 -6 -1 -6 -9z"/>
<path d="M1345 1950 c3 -5 10 -10 16 -10 5 0 9 5 9 10 0 6 -7 10 -16 10 -8 0
-12 -4 -9 -10z"/>
<path d="M1400 1948 c0 -9 -6 -19 -12 -21 -10 -4 -10 -6 0 -6 14 -1 28 26 18
36 -3 4 -6 -1 -6 -9z"/>
<path d="M213 1942 c-8 -5 2 -8 25 -9 28 0 32 1 17 7 -26 11 -28 11 -42 2z"/>
<path d="M440 1940 c-8 -5 -11 -12 -8 -16 4 -3 14 1 23 10 18 17 9 21 -15 6z"/>
<path d="M740 1920 c-6 -11 -7 -20 -2 -20 6 0 12 9 15 20 3 11 3 20 1 20 -2 0
-8 -9 -14 -20z"/>
<path d="M490 1921 c13 -10 13 -12 0 -21 -13 -8 -12 -10 3 -10 22 0 19 31 -3
37 -13 4 -13 3 0 -6z"/>
<path d="M958 1908 c-19 -19 -13 -24 11 -9 7 5 12 13 10 18 -2 5 -12 1 -21 -9z"/>
<path d="M1338 1923 c7 -3 16 -2 19 1 4 3 -2 6 -13 5 -11 0 -14 -3 -6 -6z"/>
<path d="M368 1913 c7 -3 16 -2 19 1 4 3 -2 6 -13 5 -11 0 -14 -3 -6 -6z"/>
<path d="M411 1904 c0 -11 3 -14 6 -6 3 7 2 16 -1 19 -3 4 -6 -2 -5 -13z"/>
<path d="M541 1903 c-7 -8 -11 -16 -8 -19 2 -2 10 2 17 11 17 20 9 27 -9 8z"/>
<path d="M676 1905 c-11 -8 -17 -17 -14 -20 2 -3 13 4 23 15 21 23 18 25 -9 5z"/>
<path d="M1310 1900 c0 -5 7 -7 15 -4 8 4 15 8 15 10 0 2 -7 4 -15 4 -8 0 -15
-4 -15 -10z"/>
<path d="M570 1886 c0 -8 6 -17 13 -19 9 -4 8 -8 -3 -16 -8 -6 -10 -11 -4 -11
24 0 31 25 12 43 -14 13 -18 14 -18 3z"/>
<path d="M710 1892 c0 -7 -6 -12 -13 -12 -8 0 -14 -7 -14 -15 0 -8 3 -15 6
-15 10 0 33 41 27 48 -3 3 -6 0 -6 -6z"/>
<path d="M1072 1884 c-7 -8 -8 -14 -3 -14 10 0 25 19 20 25 -2 1 -10 -3 -17
-11z"/>
<path d="M300 1879 c0 -5 5 -7 10 -4 6 3 10 8 10 11 0 2 -4 4 -10 4 -5 0 -10
-5 -10 -11z"/>
<path d="M435 1880 c-3 -5 -1 -10 4 -10 6 0 11 5 11 10 0 6 -2 10 -4 10 -3 0
-8 -4 -11 -10z"/>
<path d="M1165 1879 c-4 -6 -5 -12 -2 -15 2 -3 7 2 10 11 7 17 1 20 -8 4z"/>
<path d="M963 1860 c-11 -16 -10 -18 2 -14 8 4 15 12 15 20 0 19 -3 18 -17 -6z"/>
<path d="M1016 1863 c-6 -14 -5 -15 5 -6 7 7 10 15 7 18 -3 3 -9 -2 -12 -12z"/>
<path d="M1200 1869 c0 -5 5 -7 10 -4 6 3 10 8 10 11 0 2 -4 4 -10 4 -5 0 -10
-5 -10 -11z"/>
<path d="M1320 1865 c0 -8 4 -15 8 -15 5 0 9 7 9 15 0 8 -4 15 -9 15 -4 0 -8
-7 -8 -15z"/>
<path d="M330 1860 c-8 -5 -12 -12 -9 -15 4 -3 12 1 19 10 14 17 11 19 -10 5z"/>
<path d="M375 1859 c-11 -16 -1 -19 13 -3 7 8 8 14 3 14 -5 0 -13 -5 -16 -11z"/>
<path d="M806 1845 c4 -8 8 -15 10 -15 2 0 4 7 4 15 0 8 -4 15 -10 15 -5 0 -7
-7 -4 -15z"/>
<path d="M910 1850 c-8 -5 -12 -12 -9 -15 4 -3 12 1 19 10 14 17 11 19 -10 5z"/>
<path d="M468 1843 c6 -2 18 -2 25 0 6 3 1 5 -13 5 -14 0 -19 -2 -12 -5z"/>
<path d="M1166 1834 c-5 -14 -4 -15 9 -4 17 14 19 20 6 20 -5 0 -12 -7 -15
-16z"/>
<path d="M835 1830 c-3 -6 1 -7 9 -4 18 7 21 14 7 14 -6 0 -13 -4 -16 -10z"/>
<path d="M872 1809 c-12 -19 -12 -21 2 -16 8 3 18 2 21 -4 4 -5 -1 -12 -9 -15
-9 -3 -13 -10 -10 -15 3 -5 -2 -9 -10 -9 -9 0 -16 -4 -16 -10 0 -18 15 -10 47
25 28 30 30 35 13 35 -10 0 -20 7 -22 15 -2 12 -6 11 -16 -6z"/>
<path d="M925 1820 c3 -5 8 -10 11 -10 2 0 4 5 4 10 0 6 -5 10 -11 10 -5 0 -7
-4 -4 -10z"/>
<path d="M1201 1814 c0 -11 3 -14 6 -6 3 7 2 16 -1 19 -3 4 -6 -2 -5 -13z"/>
<path d="M1241 1814 c0 -11 3 -14 6 -6 3 7 2 16 -1 19 -3 4 -6 -2 -5 -13z"/>
<path d="M375 1810 c-3 -6 1 -7 9 -4 18 7 21 14 7 14 -6 0 -13 -4 -16 -10z"/>
<path d="M450 1790 c-8 -5 -12 -12 -9 -15 4 -3 12 1 19 10 14 17 11 19 -10 5z"/>
<path d="M958 1793 c12 -2 30 -2 40 0 9 3 -1 5 -23 4 -22 0 -30 -2 -17 -4z"/>
<path d="M827 1763 c3 -7 -2 -13 -11 -13 -9 0 -13 -6 -10 -15 6 -15 12 -12 42
27 12 15 11 17 -6 15 -12 0 -18 -6 -15 -14z"/>
<path d="M980 1770 c-8 -5 -12 -12 -9 -15 4 -3 12 1 19 10 14 17 11 19 -10 5z"/>
<path d="M772 1754 c-7 -8 -8 -14 -3 -14 10 0 25 19 20 25 -2 1 -10 -3 -17
-11z"/>
<path d="M1056 1755 c-3 -8 -1 -15 4 -15 6 0 10 7 10 15 0 8 -2 15 -4 15 -2 0
-6 -7 -10 -15z"/>
<path d="M590 1745 c-11 -13 -10 -14 4 -9 9 3 16 10 16 15 0 13 -6 11 -20 -6z"/>
<path d="M656 1723 c-6 -14 -5 -15 5 -6 7 7 10 15 7 18 -3 3 -9 -2 -12 -12z"/>
<path d="M1080 1725 c0 -9 9 -15 21 -15 18 0 19 2 5 15 -8 8 -17 15 -20 15 -3
0 -6 -7 -6 -15z"/>
<path d="M685 1710 c3 -5 8 -10 11 -10 2 0 4 5 4 10 0 6 -5 10 -11 10 -5 0 -7
-4 -4 -10z"/>
<path d="M1020 1705 c0 -8 2 -15 4 -15 2 0 6 7 10 15 3 8 1 15 -4 15 -6 0 -10
-7 -10 -15z"/>
<path d="M715 1680 c3 -5 8 -10 11 -10 2 0 4 5 4 10 0 6 -5 10 -11 10 -5 0 -7
-4 -4 -10z"/>
<path d="M806 1673 c-6 -14 -5 -15 5 -6 7 7 10 15 7 18 -3 3 -9 -2 -12 -12z"/>
<path d="M990 1679 c0 -5 5 -7 10 -4 6 3 10 8 10 11 0 2 -4 4 -10 4 -5 0 -10
-5 -10 -11z"/>
<path d="M878 1663 c7 -3 16 -2 19 1 4 3 -2 6 -13 5 -11 0 -14 -3 -6 -6z"/>
<path d="M1711 1644 c0 -11 3 -14 6 -6 3 7 2 16 -1 19 -3 4 -6 -2 -5 -13z"/>
<path d="M1756 1645 c-3 -8 -1 -15 4 -15 6 0 10 7 10 15 0 8 -2 15 -4 15 -2 0
-6 -7 -10 -15z"/>
<path d="M1793 1641 c-10 -16 -9 -18 6 -14 10 2 18 11 18 19 0 19 -10 18 -24
-5z"/>
<path d="M2170 1473 c0 -125 -4 -183 -10 -173 -6 9 -10 10 -10 3 0 -6 4 -15
10 -18 11 -7 10 -75 -2 -75 -4 0 -8 -5 -8 -11 0 -5 5 -7 10 -4 6 4 10 -11 10
-39 0 -25 -4 -48 -10 -51 -5 -3 -10 -11 -10 -16 0 -6 4 -8 8 -5 5 3 8 -89 7
-205 -2 -169 -5 -213 -16 -220 -12 -7 -12 -9 1 -9 13 0 15 -23 15 -145 0 -80
-4 -145 -8 -145 -5 0 -5 -5 -2 -11 4 -5 -9 -26 -29 -45 -40 -39 -35 -47 6 -9
33 30 38 31 31 5 -3 -11 -10 -20 -17 -20 -7 0 -6 -4 2 -9 10 -6 13 -31 12 -92
-1 -46 -2 -92 -2 -101 1 -9 -7 -19 -16 -21 -14 -4 -14 -5 2 -6 14 -1 17 -7 14
-26 l-5 -25 331 0 331 0 -2 92 c-2 76 0 93 15 105 16 12 16 13 -1 7 -16 -6
-17 2 -16 92 2 91 4 99 28 121 17 15 20 21 9 17 -10 -3 -18 -10 -18 -15 0 -5
-4 -9 -9 -9 -15 0 -14 202 1 212 10 6 10 8 1 8 -7 0 -13 8 -13 18 0 10 6 24
13 31 10 11 10 13 0 7 -9 -5 -13 -1 -13 11 0 11 6 25 13 32 9 10 9 12 0 7 -9
-5 -12 79 -12 371 0 208 -1 417 -1 466 l0 87 -320 0 -320 0 0 -187z"/>
<path d="M2881 1624 c0 -11 3 -14 6 -6 3 7 2 16 -1 19 -3 4 -6 -2 -5 -13z"/>
<path d="M3245 1620 c-3 -6 1 -7 9 -4 18 7 21 14 7 14 -6 0 -13 -4 -16 -10z"/>
<path d="M4970 1596 c0 -50 -43 -236 -81 -349 -45 -137 -120 -290 -191 -394
l-49 -71 62 -104 c110 -182 189 -367 243 -572 l25 -91 0 803 c1 441 -1 802 -4
802 -3 0 -5 -11 -5 -24z"/>
<path d="M1664 1591 c0 -11 4 -17 8 -15 4 3 8 12 8 20 0 8 -4 14 -8 14 -4 0
-8 -9 -8 -19z"/>
<path d="M2031 1594 c0 -11 3 -14 6 -6 3 7 2 16 -1 19 -3 4 -6 -2 -5 -13z"/>
<path d="M2911 1603 c-1 -7 -7 -13 -14 -13 -7 0 -18 -9 -25 -20 -15 -25 -11
-25 18 0 17 14 27 17 36 9 8 -7 14 -7 19 1 3 5 0 10 -9 10 -8 0 -17 6 -19 13
-4 10 -6 10 -6 0z"/>
<path d="M3266 1584 c-18 -17 -20 -24 -8 -24 4 0 13 9 20 20 15 24 9 26 -12 4z"/>
<path d="M3125 1579 c-4 -6 -5 -12 -2 -15 2 -3 7 2 10 11 7 17 1 20 -8 4z"/>
<path d="M3210 1578 c0 -9 -6 -19 -12 -21 -10 -4 -10 -6 0 -6 14 -1 28 26 18
36 -3 4 -6 -1 -6 -9z"/>
<path d="M3300 1580 c0 -6 -11 -23 -25 -37 -13 -15 -22 -29 -20 -31 5 -5 39
33 56 61 6 11 6 17 -1 17 -5 0 -10 -5 -10 -10z"/>
<path d="M1708 1573 c7 -3 16 -2 19 1 4 3 -2 6 -13 5 -11 0 -14 -3 -6 -6z"/>
<path d="M2965 1562 c-5 -4 -11 -14 -13 -22 -3 -11 2 -10 17 4 12 11 21 21 21
23 0 5 -15 3 -25 -5z"/>
<path d="M3015 1560 c-3 -6 1 -7 9 -4 18 7 21 14 7 14 -6 0 -13 -4 -16 -10z"/>
<path d="M3320 1525 c-1 -27 -1 -131 -1 -231 l1 -181 -25 -13 c-14 -7 -25 -17
-25 -22 0 -12 10 -10 28 8 12 12 17 13 20 4 3 -7 -2 -16 -9 -21 -10 -6 -11 -9
-1 -9 8 0 12 -18 12 -55 0 -60 -7 -68 -30 -32 -15 23 -16 23 -33 5 -17 -18
-17 -18 8 -12 15 4 25 2 25 -5 0 -6 -7 -11 -15 -11 -8 0 -15 -6 -15 -14 0 -8
-6 -17 -12 -19 -10 -4 -10 -6 -1 -6 7 -1 21 8 32 20 13 15 21 17 26 9 4 -7 1
-16 -6 -21 -11 -7 -11 -9 2 -9 15 0 17 -21 17 -202 0 -176 -2 -204 -17 -215
-15 -12 -15 -13 0 -7 15 5 17 -9 16 -125 0 -88 -4 -131 -11 -131 -8 0 -7 -3 0
-8 8 -4 11 -32 10 -72 -4 -89 -4 -90 -23 -90 -9 0 -13 -3 -10 -7 4 -3 2 -12
-4 -20 -21 -24 0 -14 25 13 13 15 27 43 30 63 21 132 131 379 245 553 l70 107
-51 88 c-102 175 -199 416 -253 628 -23 90 -23 90 -25 40z"/>
<path d="M1760 1538 c-11 -12 -20 -26 -20 -32 0 -5 1 -7 3 -5 1 2 13 16 26 32
29 32 21 37 -9 5z"/>
<path d="M1710 1535 c0 -8 4 -15 8 -15 5 0 9 7 9 15 0 8 -4 15 -9 15 -4 0 -8
-7 -8 -15z"/>
<path d="M1803 1544 c3 -3 -5 -16 -19 -29 -13 -12 -24 -29 -24 -36 0 -8 8 -2
18 14 13 20 25 27 52 28 23 1 27 3 13 6 -13 2 -23 9 -23 14 0 5 -5 9 -12 9 -6
0 -9 -3 -5 -6z"/>
<path d="M1892 1534 c-7 -8 -8 -14 -3 -14 10 0 25 19 20 25 -2 1 -10 -3 -17
-11z"/>
<path d="M1932 1534 c-7 -8 -8 -14 -3 -14 10 0 25 19 20 25 -2 1 -10 -3 -17
-11z"/>
<path d="M2858 1533 c7 -3 16 -2 19 1 4 3 -2 6 -13 5 -11 0 -14 -3 -6 -6z"/>
<path d="M3206 1527 c3 -10 9 -15 12 -12 3 3 0 11 -7 18 -10 9 -11 8 -5 -6z"/>
<path d="M2095 1520 c4 -6 11 -8 16 -5 14 9 11 15 -7 15 -8 0 -12 -5 -9 -10z"/>
<path d="M1905 1499 c-11 -16 -1 -19 13 -3 7 8 8 14 3 14 -5 0 -13 -5 -16 -11z"/>
<path d="M1940 1490 c-13 -11 -20 -20 -16 -20 4 0 19 9 33 20 14 11 21 20 16
20 -6 0 -20 -9 -33 -20z"/>
<path d="M2081 1500 c0 -8 6 -24 14 -34 13 -17 15 -18 15 -3 0 9 -4 17 -9 17
-5 0 -12 8 -14 18 -3 12 -5 13 -6 2z"/>
<path d="M2906 1501 c-4 -7 -5 -15 -2 -18 9 -9 19 4 14 18 -4 11 -6 11 -12 0z"/>
<path d="M3191 1494 c0 -11 3 -14 6 -6 3 7 2 16 -1 19 -3 4 -6 -2 -5 -13z"/>
<path d="M1715 1490 c3 -5 8 -10 11 -10 2 0 4 5 4 10 0 6 -5 10 -11 10 -5 0
-7 -4 -4 -10z"/>
<path d="M1810 1485 c0 -8 2 -15 4 -15 2 0 6 7 10 15 3 8 1 15 -4 15 -6 0 -10
-7 -10 -15z"/>
<path d="M1850 1485 c0 -8 2 -15 4 -15 2 0 6 7 10 15 3 8 1 15 -4 15 -6 0 -10
-7 -10 -15z"/>
<path d="M1735 1460 c3 -5 1 -10 -4 -10 -6 0 -11 -5 -11 -11 0 -8 5 -8 15 1
17 14 20 30 4 30 -5 0 -7 -4 -4 -10z"/>
<path d="M1947 1444 c-15 -15 -27 -32 -26 -38 0 -7 3 -6 6 2 2 6 12 12 21 12
8 0 12 3 9 7 -4 3 1 12 11 19 9 7 14 15 11 18 -3 4 -18 -6 -32 -20z"/>
<path d="M2001 1451 c-7 -5 -12 -14 -10 -20 2 -6 10 -2 17 9 14 22 13 23 -7
11z"/>
<path d="M3143 1445 c0 -8 7 -17 14 -19 9 -4 11 -1 7 5 -4 6 0 15 7 20 11 7 9
9 -7 9 -11 0 -21 -6 -21 -15z"/>
<path d="M3285 1449 c-4 -6 -5 -12 -2 -15 2 -3 7 2 10 11 7 17 1 20 -8 4z"/>
<path d="M1752 1420 c-17 -27 -15 -35 4 -16 8 9 14 21 12 26 -2 6 -9 1 -16
-10z"/>
<path d="M2010 1408 c-11 -12 -20 -26 -20 -31 0 -9 14 4 39 36 19 24 6 21 -19
-5z"/>
<path d="M3071 1414 c0 -11 3 -14 6 -6 3 7 2 16 -1 19 -3 4 -6 -2 -5 -13z"/>
<path d="M1695 1409 c-4 -6 -4 -13 -1 -16 3 -4 6 -1 6 5 0 6 8 13 18 15 15 4
15 5 0 6 -9 0 -20 -4 -23 -10z"/>
<path d="M1838 1413 c7 -3 16 -2 19 1 4 3 -2 6 -13 5 -11 0 -14 -3 -6 -6z"/>
<path d="M1946 1383 c-6 -14 -5 -15 5 -6 7 7 10 15 7 18 -3 3 -9 -2 -12 -12z"/>
<path d="M2131 1384 c0 -11 3 -14 6 -6 3 7 2 16 -1 19 -3 4 -6 -2 -5 -13z"/>
<path d="M3141 1384 c0 -11 3 -14 6 -6 3 7 2 16 -1 19 -3 4 -6 -2 -5 -13z"/>
<path d="M3223 1393 c4 -3 2 -12 -4 -19 -8 -9 -5 -11 10 -7 20 5 19 33 -2 33
-6 0 -7 -3 -4 -7z"/>
<path d="M1663 1375 c0 -8 4 -15 9 -15 4 0 8 7 8 15 0 8 -4 15 -8 15 -5 0 -9
-7 -9 -15z"/>
<path d="M1806 1373 c-6 -14 -5 -15 5 -6 7 7 10 15 7 18 -3 3 -9 -2 -12 -12z"/>
<path d="M2860 1376 c0 -2 7 -7 16 -10 8 -3 12 -2 9 4 -6 10 -25 14 -25 6z"/>
<path d="M2940 1370 c-8 -5 -10 -10 -5 -10 6 0 17 5 25 10 8 5 11 10 5 10 -5
0 -17 -5 -25 -10z"/>
<path d="M3080 1370 c-9 -6 -10 -10 -3 -10 6 0 15 5 18 10 8 12 4 12 -15 0z"/>
<path d="M1760 1366 c0 -2 7 -7 16 -10 8 -3 12 -2 9 4 -6 10 -25 14 -25 6z"/>
<path d="M2011 1354 c0 -11 3 -14 6 -6 3 7 2 16 -1 19 -3 4 -6 -2 -5 -13z"/>
<path d="M2857 1330 c-9 -11 -13 -20 -9 -20 4 0 15 9 25 20 9 11 13 20 9 20
-4 0 -15 -9 -25 -20z"/>
<path d="M2918 1343 c-10 -2 -18 -9 -18 -14 0 -14 16 -11 30 6 7 8 11 14 9 14
-2 -1 -12 -3 -21 -6z"/>
<path d="M3055 1339 c-11 -16 -1 -19 13 -3 7 8 8 14 3 14 -5 0 -13 -5 -16 -11z"/>
<path d="M1675 1330 c-3 -6 1 -7 9 -4 18 7 21 14 7 14 -6 0 -13 -4 -16 -10z"/>
<path d="M1851 1324 c0 -11 3 -14 6 -6 3 7 2 16 -1 19 -3 4 -6 -2 -5 -13z"/>
<path d="M1753 1314 c-19 -20 -16 -38 3 -20 8 9 14 20 12 25 -2 5 -9 3 -15 -5z"/>
<path d="M3160 1309 c0 -5 5 -7 10 -4 6 3 10 8 10 11 0 2 -4 4 -10 4 -5 0 -10
-5 -10 -11z"/>
<path d="M1666 1302 c-3 -5 8 -6 25 -4 16 2 29 6 29 8 0 8 -49 4 -54 -4z"/>
<path d="M1921 1294 c0 -11 3 -14 6 -6 3 7 2 16 -1 19 -3 4 -6 -2 -5 -13z"/>
<path d="M1945 1272 c-16 -19 -45 -50 -62 -69 -18 -18 -33 -38 -33 -44 0 -5
15 7 33 28 17 21 47 53 65 71 18 18 32 37 30 41 -2 5 -16 -7 -33 -27z"/>
<path d="M2050 1294 c0 -8 5 -12 10 -9 6 3 10 10 10 16 0 5 -4 9 -10 9 -5 0
-10 -7 -10 -16z"/>
<path d="M3056 1291 c-4 -5 3 -7 14 -4 23 6 26 13 6 13 -8 0 -17 -4 -20 -9z"/>
<path d="M2900 1279 c0 -6 -14 -24 -31 -40 -18 -16 -29 -32 -27 -35 3 -3 13 2
21 11 9 8 36 16 60 17 l44 2 -23 19 c-14 10 -22 23 -19 28 4 5 -1 9 -9 9 -9 0
-16 -5 -16 -11z m30 -29 c0 -5 -9 -10 -21 -10 -11 0 -17 5 -14 10 3 6 13 10
21 10 8 0 14 -4 14 -10z"/>
<path d="M1991 1264 c0 -11 3 -14 6 -6 3 7 2 16 -1 19 -3 4 -6 -2 -5 -13z"/>
<path d="M3250 1259 c0 -5 5 -7 10 -4 6 3 10 8 10 11 0 2 -4 4 -10 4 -5 0 -10
-5 -10 -11z"/>
<path d="M3140 1235 c0 -8 2 -15 4 -15 2 0 6 7 10 15 3 8 1 15 -4 15 -6 0 -10
-7 -10 -15z"/>
<path d="M3281 1234 c0 -11 3 -14 6 -6 3 7 2 16 -1 19 -3 4 -6 -2 -5 -13z"/>
<path d="M1726 1224 c-23 -23 -20 -30 4 -9 11 10 20 20 20 22 0 7 -9 2 -24
-13z"/>
<path d="M1855 1224 c-8 -9 -21 -14 -29 -11 -7 3 -19 1 -27 -4 -10 -6 -4 -9
19 -9 19 0 40 8 52 20 11 11 16 20 11 20 -5 0 -17 -7 -26 -16z"/>
<path d="M1951 1231 c-8 -5 -9 -11 -3 -15 5 -3 12 1 16 9 6 17 6 18 -13 6z"/>
<path d="M1751 1208 c-13 -20 -12 -22 1 -11 8 7 17 11 20 8 2 -3 5 2 5 10 0
21 -10 19 -26 -7z"/>
<path d="M2930 1198 c-11 -12 -20 -26 -20 -32 0 -6 7 0 16 12 15 21 17 22 28
6 12 -15 13 -15 19 -1 4 10 2 16 -6 14 -7 -1 -11 4 -9 11 3 18 -4 15 -28 -10z"/>
<path d="M2988 1213 c7 -3 16 -2 19 1 4 3 -2 6 -13 5 -11 0 -14 -3 -6 -6z"/>
<path d="M3200 1209 c0 -5 5 -7 10 -4 6 3 10 8 10 11 0 2 -4 4 -10 4 -5 0 -10
-5 -10 -11z"/>
<path d="M2007 1190 c-3 -11 -3 -20 -1 -20 2 0 8 9 14 20 6 11 7 20 2 20 -6 0
-12 -9 -15 -20z"/>
<path d="M3218 1178 c-10 -10 -18 -20 -18 -23 0 -3 -9 -15 -20 -27 -11 -12
-20 -26 -20 -32 0 -5 6 -2 13 9 9 11 16 14 21 7 3 -6 2 -13 -4 -17 -5 -3 -10
-14 -10 -23 1 -12 5 -10 15 8 8 15 10 29 4 34 -5 6 1 20 17 37 14 15 25 31 23
36 -2 5 -12 1 -21 -9z"/>
<path d="M2036 1164 c-3 -8 -10 -12 -16 -9 -5 3 -10 1 -10 -4 0 -16 16 -13 34
5 18 18 20 24 7 24 -5 0 -12 -7 -15 -16z"/>
<path d="M2080 1172 c0 -5 7 -15 15 -22 8 -7 15 -9 15 -6 0 4 -7 14 -15 22 -8
9 -15 11 -15 6z"/>
<path d="M2938 1153 c6 -2 18 -2 25 0 6 3 1 5 -13 5 -14 0 -19 -2 -12 -5z"/>
<path d="M1875 1140 c3 -5 8 -10 11 -10 2 0 4 5 4 10 0 6 -5 10 -11 10 -5 0
-7 -4 -4 -10z"/>
<path d="M2921 1131 c-8 -5 -9 -11 -3 -15 5 -3 12 1 16 9 6 17 6 18 -13 6z"/>
<path d="M1680 1120 c-9 -6 -10 -10 -3 -10 6 0 15 5 18 10 8 12 4 12 -15 0z"/>
<path d="M1727 1123 c-10 -9 -9 -23 1 -23 5 0 9 7 9 15 0 17 -1 18 -10 8z"/>
<path d="M2034 1121 c4 -5 1 -12 -4 -14 -6 -3 -5 -4 2 -3 15 3 23 26 8 26 -6
0 -9 -4 -6 -9z"/>
<path d="M3120 1110 c-9 -6 -10 -10 -3 -10 6 0 15 5 18 10 8 12 4 12 -15 0z"/>
<path d="M2060 1097 c0 -7 6 -19 12 -25 10 -10 10 -15 -2 -22 -8 -5 -10 -10
-4 -10 14 0 48 49 40 58 -3 3 -6 0 -6 -6 0 -7 -7 -12 -16 -12 -10 0 -14 6 -10
15 3 8 1 15 -4 15 -6 0 -10 -6 -10 -13z"/>
<path d="M1678 1093 c6 -2 18 -2 25 0 6 3 1 5 -13 5 -14 0 -19 -2 -12 -5z"/>
<path d="M1901 1064 c0 -11 3 -14 6 -6 3 7 2 16 -1 19 -3 4 -6 -2 -5 -13z"/>
<path d="M1991 1064 c0 -11 3 -14 6 -6 3 7 2 16 -1 19 -3 4 -6 -2 -5 -13z"/>
<path d="M2041 1064 c0 -11 3 -14 6 -6 3 7 2 16 -1 19 -3 4 -6 -2 -5 -13z"/>
<path d="M3200 1049 c0 -5 5 -7 10 -4 6 3 10 8 10 11 0 2 -4 4 -10 4 -5 0 -10
-5 -10 -11z"/>
<path d="M1875 1040 c3 -5 8 -10 11 -10 2 0 4 5 4 10 0 6 -5 10 -11 10 -5 0
-7 -4 -4 -10z"/>
<path d="M3010 1030 c-13 -8 -12 -10 3 -10 9 0 17 5 17 10 0 12 -1 12 -20 0z"/>
<path d="M1760 1020 c0 -15 -76 -90 -91 -90 -7 0 -9 -3 -6 -7 12 -11 68 -8 79
5 6 6 25 12 43 12 26 0 34 5 38 23 5 20 5 20 -7 5 -7 -10 -21 -18 -30 -18 -19
0 -22 16 -3 23 7 3 7 6 1 6 -6 1 -21 -12 -33 -28 -14 -18 -29 -27 -37 -24 -11
4 -9 10 9 27 33 31 62 76 48 76 -6 0 -11 -5 -11 -10z"/>
<path d="M1805 1021 c3 -6 -3 -14 -12 -20 -10 -6 -13 -11 -6 -11 11 0 43 26
43 36 0 2 -7 4 -16 4 -8 0 -13 -4 -9 -9z"/>
<path d="M1897 1010 c-3 -11 -3 -20 -1 -20 2 0 8 9 14 20 6 11 7 20 2 20 -6 0
-12 -9 -15 -20z"/>
<path d="M3196 1003 c-6 -14 -5 -15 5 -6 7 7 10 15 7 18 -3 3 -9 -2 -12 -12z"/>
<path d="M1682 984 c-7 -8 -12 -19 -10 -23 2 -5 11 2 21 15 19 26 10 33 -11 8z"/>
<path d="M2881 977 c-13 -21 -12 -21 5 -5 10 10 16 20 13 22 -3 3 -11 -5 -18
-17z"/>
<path d="M2940 990 c0 -5 5 -10 10 -10 6 0 10 5 10 10 0 6 -4 10 -10 10 -5 0
-10 -4 -10 -10z"/>
<path d="M3103 965 c0 -8 4 -12 9 -9 5 3 6 10 3 15 -9 13 -12 11 -12 -6z"/>
<path d="M1901 954 c0 -11 3 -14 6 -6 3 7 2 16 -1 19 -3 4 -6 -2 -5 -13z"/>
<path d="M2900 950 c-9 -6 -10 -10 -3 -10 6 0 15 5 18 10 8 12 4 12 -15 0z"/>
<path d="M2846 935 c-3 -8 -1 -15 4 -15 6 0 10 7 10 15 0 8 -2 15 -4 15 -2 0
-6 -7 -10 -15z"/>
<path d="M2936 935 c4 -8 8 -15 10 -15 2 0 4 7 4 15 0 8 -4 15 -10 15 -5 0 -7
-7 -4 -15z"/>
<path d="M3135 940 c-3 -6 1 -7 9 -4 18 7 21 14 7 14 -6 0 -13 -4 -16 -10z"/>
<path d="M3220 935 c0 -8 2 -15 4 -15 2 0 6 7 10 15 3 8 1 15 -4 15 -6 0 -10
-7 -10 -15z"/>
<path d="M1821 923 c-7 -8 -11 -16 -8 -19 2 -2 10 2 17 11 17 20 9 27 -9 8z"/>
<path d="M1765 919 c-11 -17 -2 -18 19 -3 17 12 17 14 4 14 -9 0 -20 -5 -23
-11z"/>
<path d="M1955 920 c-3 -6 1 -7 9 -4 18 7 21 14 7 14 -6 0 -13 -4 -16 -10z"/>
<path d="M1853 913 c4 -3 2 -12 -5 -20 -8 -11 -7 -12 6 -7 18 7 22 34 4 34 -6
0 -8 -3 -5 -7z"/>
<path d="M1896 905 c-3 -8 -1 -15 4 -15 6 0 10 7 10 15 0 8 -2 15 -4 15 -2 0
-6 -7 -10 -15z"/>
<path d="M3150 900 c0 -5 5 -10 10 -10 6 0 10 5 10 10 0 6 -4 10 -10 10 -5 0
-10 -4 -10 -10z"/>
<path d="M1741 884 c0 -11 3 -14 6 -6 3 7 2 16 -1 19 -3 4 -6 -2 -5 -13z"/>
<path d="M1930 885 c0 -8 2 -15 4 -15 2 0 6 7 10 15 3 8 1 15 -4 15 -6 0 -10
-7 -10 -15z"/>
<path d="M3274 883 c-15 -16 -15 -17 2 -24 28 -11 41 -10 21 2 -14 8 -16 14
-6 25 16 20 4 18 -17 -3z"/>
<path d="M1962 874 c-7 -8 -8 -14 -3 -14 10 0 25 19 20 25 -2 1 -10 -3 -17
-11z"/>
<path d="M2887 876 c-4 -10 -1 -13 9 -9 15 6 19 23 5 23 -5 0 -11 -7 -14 -14z"/>
<path d="M1715 850 c-3 -5 -1 -10 4 -10 6 0 11 5 11 10 0 6 -2 10 -4 10 -3 0
-8 -4 -11 -10z"/>
<path d="M2909 843 c-13 -16 -12 -17 4 -4 16 13 21 21 13 21 -2 0 -10 -8 -17
-17z"/>
<path d="M3050 850 c0 -5 5 -10 11 -10 5 0 7 5 4 10 -3 6 -8 10 -11 10 -2 0
-4 -4 -4 -10z"/>
<path d="M3136 844 c-4 -10 -1 -14 6 -12 15 5 23 28 10 28 -5 0 -13 -7 -16
-16z"/>
<path d="M1740 832 c0 -6 -8 -13 -17 -15 -16 -4 -16 -5 -1 -6 18 -1 34 16 24
26 -3 4 -6 1 -6 -5z"/>
<path d="M1680 815 c-11 -13 -10 -14 4 -9 9 3 16 10 16 15 0 13 -6 11 -20 -6z"/>
<path d="M3146 796 c3 -8 -2 -16 -13 -19 -13 -3 -11 -5 7 -6 19 -1 26 4 26 19
0 11 -6 20 -13 20 -7 0 -10 -6 -7 -14z"/>
<path d="M3291 794 c0 -11 3 -14 6 -6 3 7 2 16 -1 19 -3 4 -6 -2 -5 -13z"/>
<path d="M1695 780 c4 -6 11 -8 16 -5 14 9 11 15 -7 15 -8 0 -12 -5 -9 -10z"/>
<path d="M1745 779 c-4 -6 -5 -12 -2 -15 2 -3 7 2 10 11 7 17 1 20 -8 4z"/>
<path d="M3030 770 l-23 -20 29 1 c16 0 23 3 16 6 -10 4 -10 8 -1 19 17 20 6
17 -21 -6z"/>
<path d="M1713 745 c0 -8 4 -15 9 -15 4 0 8 7 8 15 0 8 -4 15 -8 15 -5 0 -9
-7 -9 -15z"/>
<path d="M2960 749 c0 -5 5 -7 10 -4 6 3 10 8 10 11 0 2 -4 4 -10 4 -5 0 -10
-5 -10 -11z"/>
<path d="M3145 740 c-3 -5 1 -10 9 -10 9 0 16 5 16 10 0 6 -4 10 -9 10 -6 0
-13 -4 -16 -10z"/>
<path d="M1746 725 c-3 -8 -1 -15 3 -15 5 0 11 7 15 15 3 8 1 15 -3 15 -5 0
-11 -7 -15 -15z"/>
<path d="M3066 705 c-19 -19 -32 -36 -28 -39 4 -2 24 13 44 35 45 48 33 52
-16 4z"/>
<path d="M2900 720 c0 -5 -7 -10 -15 -10 -8 0 -15 -6 -15 -14 0 -8 -6 -17 -12
-19 -10 -4 -10 -6 0 -6 7 -1 15 6 18 14 4 8 12 15 20 15 8 0 14 7 14 15 0 8
-2 15 -5 15 -3 0 -5 -4 -5 -10z"/>
<path d="M2977 709 c-17 -19 -17 -19 8 -13 15 4 25 2 25 -4 0 -6 -8 -13 -17
-15 -16 -4 -16 -5 -1 -6 22 -1 33 16 19 33 -6 7 -8 16 -4 19 3 4 2 7 -3 6 -5
0 -17 -9 -27 -20z"/>
<path d="M2041 694 c0 -11 3 -14 6 -6 3 7 2 16 -1 19 -3 4 -6 -2 -5 -13z"/>
<path d="M2913 684 c-7 -7 -13 -19 -13 -26 0 -7 6 -4 12 6 10 18 12 18 23 2
11 -14 13 -15 19 -1 3 9 0 15 -8 15 -8 0 -16 4 -18 9 -1 5 -9 3 -15 -5z"/>
<path d="M3200 697 c0 -4 10 -23 23 -42 22 -34 37 -44 37 -25 0 6 7 10 15 10
8 0 15 -5 15 -12 0 -6 3 -9 6 -6 3 3 0 15 -7 26 -12 19 -14 19 -25 4 -10 -13
-15 -14 -25 -5 -9 9 -8 15 5 28 22 22 20 28 -4 13 -17 -11 -22 -10 -30 2 -5 8
-10 12 -10 7z"/>
<path d="M3083 673 c4 -3 2 -12 -5 -20 -8 -11 -7 -12 5 -7 22 8 30 34 10 34
-9 0 -13 -3 -10 -7z"/>
<path d="M3133 673 c9 -2 23 -2 30 0 6 3 -1 5 -18 5 -16 0 -22 -2 -12 -5z"/>
<path d="M3140 638 c0 -4 4 -8 9 -8 6 0 12 4 15 8 3 5 -1 9 -9 9 -8 0 -15 -4
-15 -9z"/>
<path d="M3191 627 c-13 -21 -12 -21 5 -5 10 10 16 20 13 22 -3 3 -11 -5 -18
-17z"/>
<path d="M1740 616 c0 -8 -8 -17 -17 -19 -10 -2 -4 -4 14 -3 21 1 28 4 22 12
-5 6 -6 14 -2 17 3 4 1 7 -5 7 -7 0 -12 -6 -12 -14z"/>
<path d="M2905 620 c-3 -6 1 -7 9 -4 18 7 21 14 7 14 -6 0 -13 -4 -16 -10z"/>
<path d="M3221 604 c0 -11 3 -14 6 -6 3 7 2 16 -1 19 -3 4 -6 -2 -5 -13z"/>
<path d="M3267 605 c-4 -9 -1 -15 8 -15 8 0 15 -5 15 -12 0 -6 3 -9 6 -5 3 3
-1 15 -9 27 -12 17 -15 18 -20 5z"/>
<path d="M2964 588 c0 -7 7 -20 17 -29 15 -15 18 -14 33 15 10 18 12 24 3 14
-15 -19 -37 -24 -37 -9 0 5 6 12 13 14 6 3 3 6 -9 6 -11 1 -21 -5 -20 -11z"/>
<path d="M3160 590 c-8 -5 -12 -12 -9 -15 4 -3 12 1 19 10 14 17 11 19 -10 5z"/>
<path d="M3230 570 c-8 -5 -12 -12 -9 -15 4 -3 12 1 19 10 14 17 11 19 -10 5z"/>
<path d="M1740 554 c0 -8 5 -12 10 -9 6 3 10 10 10 16 0 5 -4 9 -10 9 -5 0
-10 -7 -10 -16z"/>
<path d="M2032 529 c-19 -30 -11 -32 11 -3 10 13 14 24 10 24 -5 0 -14 -9 -21
-21z"/>
<path d="M1750 520 c-9 -6 -10 -10 -3 -10 6 0 15 5 18 10 8 12 4 12 -15 0z"/>
<path d="M3000 520 c-13 -8 -12 -10 3 -10 9 0 17 5 17 10 0 12 -1 12 -20 0z"/>
<path d="M3045 520 c-3 -5 -1 -10 4 -10 6 0 11 5 11 10 0 6 -2 10 -4 10 -3 0
-8 -4 -11 -10z"/>
<path d="M3276 514 c-18 -17 -20 -24 -8 -24 4 0 13 9 20 20 15 24 9 26 -12 4z"/>
<path d="M1683 501 c-10 -16 -9 -18 7 -14 11 3 16 11 13 19 -7 18 -6 18 -20
-5z"/>
<path d="M2933 494 c-7 -7 -13 -17 -13 -21 0 -4 -12 -18 -27 -30 -14 -13 -22
-23 -16 -23 14 0 45 30 61 59 16 27 13 35 -5 15z"/>
<path d="M2971 474 c0 -11 3 -14 6 -6 3 7 2 16 -1 19 -3 4 -6 -2 -5 -13z"/>
<path d="M3060 475 c0 -8 2 -15 4 -15 2 0 6 7 10 15 3 8 1 15 -4 15 -6 0 -10
-7 -10 -15z"/>
<path d="M2020 458 c0 -9 -6 -19 -12 -21 -10 -4 -10 -6 0 -6 14 -1 28 26 18
36 -3 4 -6 -1 -6 -9z"/>
<path d="M3230 460 c-8 -5 -12 -12 -9 -15 4 -3 12 1 19 10 14 17 11 19 -10 5z"/>
<path d="M1740 449 c0 -5 5 -7 10 -4 6 3 10 8 10 11 0 2 -4 4 -10 4 -5 0 -10
-5 -10 -11z"/>
<path d="M2980 440 c-9 -6 -10 -10 -3 -10 6 0 15 5 18 10 8 12 4 12 -15 0z"/>
<path d="M3105 430 c4 -6 11 -8 16 -5 14 9 11 15 -7 15 -8 0 -12 -5 -9 -10z"/>
<path d="M1715 420 c-3 -5 -1 -10 4 -10 6 0 11 5 11 10 0 6 -2 10 -4 10 -3 0
-8 -4 -11 -10z"/>
<path d="M1895 412 c-6 -4 -16 -15 -24 -25 -12 -15 -12 -17 3 -11 9 3 16 10
16 14 0 5 8 10 18 12 10 2 13 6 7 10 -6 4 -15 4 -20 0z"/>
<path d="M1940 410 c-9 -6 -10 -10 -3 -10 6 0 15 5 18 10 8 12 4 12 -15 0z"/>
<path d="M1990 410 c-8 -5 -12 -12 -9 -15 4 -3 12 1 19 10 14 17 11 19 -10 5z"/>
<path d="M2035 412 c-5 -4 -17 -16 -25 -27 -11 -15 -7 -14 13 4 24 22 32 31
25 31 -2 0 -7 -4 -13 -8z"/>
<path d="M2113 401 c-13 -11 -23 -24 -23 -31 0 -12 11 -3 39 33 17 22 12 21
-16 -2z"/>
<path d="M2066 393 c-6 -14 -5 -15 5 -6 7 7 10 15 7 18 -3 3 -9 -2 -12 -12z"/>
<path d="M2857 403 c-4 -3 -7 -11 -7 -17 0 -6 5 -5 12 2 6 6 9 14 7 17 -3 3
-9 2 -12 -2z"/>
<path d="M2882 385 c-11 -13 -10 -15 6 -15 10 0 19 7 19 15 0 19 -8 19 -25 0z"/>
<path d="M1770 380 c-9 -6 -10 -10 -3 -10 6 0 15 5 18 10 8 12 4 12 -15 0z"/>
<path d="M1940 380 c8 -5 20 -10 25 -10 6 0 3 5 -5 10 -8 5 -19 10 -25 10 -5
0 -3 -5 5 -10z"/>
<path d="M1893 361 c-10 -16 -9 -18 6 -14 10 2 18 11 18 19 0 19 -10 18 -24
-5z"/>
<path d="M2925 369 c-4 -6 -5 -12 -2 -15 2 -3 7 2 10 11 7 17 1 20 -8 4z"/>
<path d="M3010 365 c0 -8 2 -15 4 -15 2 0 6 7 10 15 3 8 1 15 -4 15 -6 0 -10
-7 -10 -15z"/>
<path d="M3061 364 c0 -11 3 -14 6 -6 3 7 2 16 -1 19 -3 4 -6 -2 -5 -13z"/>
<path d="M3192 364 c-7 -8 -8 -14 -3 -14 10 0 25 19 20 25 -2 1 -10 -3 -17
-11z"/>
<path d="M3233 364 c-7 -7 -13 -19 -13 -26 0 -7 7 -2 16 10 18 26 16 37 -3 16z"/>
<path d="M2850 340 c-13 -11 -19 -20 -13 -20 5 0 18 9 28 20 10 11 16 20 13
20 -3 0 -15 -9 -28 -20z"/>
<path d="M1791 334 c0 -11 3 -14 6 -6 3 7 2 16 -1 19 -3 4 -6 -2 -5 -13z"/>
<path d="M3036 335 c-3 -8 -1 -15 4 -15 6 0 10 7 10 15 0 8 -2 15 -4 15 -2 0
-6 -7 -10 -15z"/>
<path d="M2001 319 c-18 -20 -48 -18 -36 2 4 5 1 9 -4 9 -6 0 -11 -7 -11 -15
0 -8 -4 -15 -10 -15 -5 0 -10 -8 -10 -17 0 -15 2 -14 14 3 8 10 18 15 22 11 5
-4 2 -12 -5 -16 -9 -6 -3 -10 18 -13 23 -3 35 1 52 20 14 17 17 23 6 19 -20
-8 -29 3 -16 20 18 21 2 15 -20 -8z m19 -29 c0 -5 -7 -10 -15 -10 -8 0 -15 5
-15 10 0 6 7 10 15 10 8 0 15 -4 15 -10z"/>
<path d="M1716 317 c3 -10 9 -15 12 -12 3 3 0 11 -7 18 -10 9 -11 8 -5 -6z"/>
<path d="M3065 319 c-4 -6 -5 -12 -2 -15 2 -3 7 2 10 11 7 17 1 20 -8 4z"/>
<path d="M3193 310 c-11 -16 -10 -18 2 -14 8 4 15 12 15 20 0 19 -3 18 -17 -6z"/>
<path d="M1806 303 c-6 -14 -5 -15 5 -6 7 7 10 15 7 18 -3 3 -9 -2 -12 -12z"/>
<path d="M1855 306 c-18 -19 -26 -36 -18 -36 9 0 37 40 31 45 -2 2 -8 -2 -13
-9z"/>
<path d="M2088 303 c7 -3 16 -2 19 1 4 3 -2 6 -13 5 -11 0 -14 -3 -6 -6z"/>
<path d="M3982 245 c-153 -85 -329 -159 -476 -200 -66 -18 -132 -35 -146 -38
-14 -2 337 -4 780 -4 443 -1 796 1 785 4 -11 2 -67 13 -124 24 -190 38 -448
139 -620 243 -32 20 -65 35 -72 35 -8 -1 -65 -30 -127 -64z"/>
<path d="M2843 281 c-10 -16 -9 -18 6 -14 10 2 18 11 18 19 0 19 -10 18 -24
-5z"/>
<path d="M2891 284 c0 -11 3 -14 6 -6 3 7 2 16 -1 19 -3 4 -6 -2 -5 -13z"/>
<path d="M3216 283 c-6 -14 -5 -15 5 -6 7 7 10 15 7 18 -3 3 -9 -2 -12 -12z"/>
<path d="M2933 273 c-15 -5 -17 -23 -4 -23 5 0 11 7 15 15 3 8 4 15 3 14 -1 0
-8 -3 -14 -6z"/>
<path d="M3070 270 c-9 -6 -10 -10 -3 -10 6 0 15 5 18 10 8 12 4 12 -15 0z"/>
<path d="M3001 247 c-13 -21 -12 -21 5 -5 10 10 16 20 13 22 -3 3 -11 -5 -18
-17z"/>
<path d="M2860 250 c-9 -6 -10 -10 -3 -10 6 0 15 5 18 10 8 12 4 12 -15 0z"/>
<path d="M3045 240 c-3 -5 -3 -14 0 -20 8 -12 32 -13 39 -1 4 5 -4 7 -16 3
-17 -4 -20 -2 -15 11 7 19 2 23 -8 7z"/>
<path d="M3268 243 c7 -3 16 -2 19 1 4 3 -2 6 -13 5 -11 0 -14 -3 -6 -6z"/>
<path d="M1778 211 c-7 -12 -18 -21 -25 -21 -7 0 -13 -4 -13 -10 0 -12 -27
-13 -32 -2 -1 5 -13 -4 -26 -20 -16 -19 -19 -26 -8 -22 9 3 16 10 16 15 0 5 7
9 15 9 8 0 15 -4 15 -10 0 -5 -5 -10 -12 -10 -6 0 -8 -3 -4 -7 4 -4 15 3 25
15 15 21 19 22 30 8 11 -13 11 -16 -3 -16 -20 0 -21 -14 -1 -30 18 -15 10 -31
-10 -24 -8 4 -12 10 -9 15 3 5 0 9 -5 9 -17 0 -13 -18 7 -29 12 -7 24 -4 41
10 23 19 23 19 2 19 -12 0 -21 5 -21 10 0 6 3 10 8 10 4 0 13 9 20 21 8 12 9
18 4 15 -6 -3 -17 -3 -26 0 -12 5 -10 10 11 30 14 13 23 27 20 30 -3 3 -12 -3
-19 -15z"/>
<path d="M3110 220 c-9 -6 -10 -10 -3 -10 6 0 15 5 18 10 8 12 4 12 -15 0z"/>
<path d="M3241 204 c0 -11 3 -14 6 -6 3 7 2 16 -1 19 -3 4 -6 -2 -5 -13z"/>
<path d="M1940 190 c-9 -6 -10 -10 -3 -10 6 0 15 5 18 10 8 12 4 12 -15 0z"/>
<path d="M1808 183 c7 -3 16 -2 19 1 4 3 -2 6 -13 5 -11 0 -14 -3 -6 -6z"/>
<path d="M1826 164 c-11 -8 -16 -14 -10 -14 13 0 39 18 34 24 -3 2 -14 -2 -24
-10z"/>
<path d="M1856 145 c-13 -19 -13 -23 -2 -19 8 3 16 14 19 25 7 25 3 24 -17 -6z"/>
<path d="M1978 129 c-15 -16 -23 -29 -18 -29 11 0 50 41 50 52 0 11 -1 10 -32
-23z"/>
<path d="M1898 133 c7 -3 16 -2 19 1 4 3 -2 6 -13 5 -11 0 -14 -3 -6 -6z"/>
<path d="M2020 125 c0 -8 -3 -15 -8 -15 -4 0 -13 -9 -19 -19 -10 -16 -9 -18 7
-14 11 3 18 9 15 13 -3 4 2 13 10 20 17 14 20 30 5 30 -5 0 -10 -7 -10 -15z"/>
<path d="M2991 124 c0 -11 3 -14 6 -6 3 7 2 16 -1 19 -3 4 -6 -2 -5 -13z"/>
<path d="M3070 110 c-9 -6 -10 -10 -3 -10 6 0 15 5 18 10 8 12 4 12 -15 0z"/>
<path d="M1860 99 c0 -5 5 -7 10 -4 6 3 10 8 10 11 0 2 -4 4 -10 4 -5 0 -10
-5 -10 -11z"/>
<path d="M2090 95 c-7 -9 -8 -15 -2 -15 5 0 12 7 16 15 3 8 4 15 2 15 -2 0 -9
-7 -16 -15z"/>
<path d="M2920 95 c0 -8 4 -15 10 -15 5 0 7 7 4 15 -4 8 -8 15 -10 15 -2 0 -4
-7 -4 -15z"/>
<path d="M3239 97 c-8 -7 -19 -21 -22 -32 -6 -14 -1 -12 18 9 32 38 34 47 4
23z"/>
<path d="M2040 85 c-11 -13 -10 -14 4 -9 9 3 16 10 16 15 0 13 -6 11 -20 -6z"/>
<path d="M1948 83 c7 -3 16 -2 19 1 4 3 -2 6 -13 5 -11 0 -14 -3 -6 -6z"/>
<path d="M3043 76 c-4 -7 -15 -16 -23 -19 -8 -3 10 -6 40 -6 34 0 50 3 41 8
-7 5 -22 6 -32 4 -10 -3 -19 -1 -19 5 0 6 15 13 33 15 l32 4 -32 1 c-18 1 -36
-4 -40 -12z"/>
<path d="M2982 59 c-19 -30 -11 -32 11 -3 10 13 14 24 10 24 -5 0 -14 -9 -21
-21z"/>
<path d="M1860 63 c-14 -3 -29 -9 -35 -14 -7 -7 -4 -8 9 -3 10 4 21 2 25 -4 4
-7 11 -4 19 8 7 11 11 19 10 19 -2 -1 -14 -4 -28 -6z"/>
<path d="M3138 58 c5 -5 16 -8 23 -6 8 3 3 7 -10 11 -17 4 -21 3 -13 -5z"/>
<path d="M1958 53 c7 -3 16 -2 19 1 4 3 -2 6 -13 5 -11 0 -14 -3 -6 -6z"/>
<path d="M2018 53 c7 -3 16 -2 19 1 4 3 -2 6 -13 5 -11 0 -14 -3 -6 -6z"/>
<path d="M2051 44 c0 -11 3 -14 6 -6 3 7 2 16 -1 19 -3 4 -6 -2 -5 -13z"/>
<path d="M2830 49 c0 -14 28 -41 33 -32 2 5 -4 16 -15 26 -10 9 -18 12 -18 6z"/>
<path d="M2916 45 c4 -8 7 -15 9 -15 2 0 5 7 9 15 3 9 0 15 -9 15 -9 0 -12 -6
-9 -15z"/>
<path d="M3245 49 c-11 -16 -1 -19 13 -3 7 8 8 14 3 14 -5 0 -13 -5 -16 -11z"/>
<path d="M1762 30 c-18 -29 -15 -38 4 -12 9 13 14 25 12 27 -2 2 -9 -5 -16
-15z"/>
<path d="M1940 30 c-9 -6 -10 -10 -3 -10 6 0 15 5 18 10 8 12 4 12 -15 0z"/>
<path d="M3090 30 c-9 -6 -10 -10 -3 -10 6 0 15 5 18 10 8 12 4 12 -15 0z"/>
<path d="M2998 23 c7 -3 16 -2 19 1 4 3 -2 6 -13 5 -11 0 -14 -3 -6 -6z"/>
<path d="M3036 15 c-3 -8 -1 -15 4 -15 6 0 10 7 10 15 0 19 -6 19 -14 0z"/>
<path d="M3221 14 c0 -11 3 -14 6 -6 3 7 2 16 -1 19 -3 4 -6 -2 -5 -13z"/>
<path d="M3311 14 c0 -11 3 -14 6 -6 3 7 2 16 -1 19 -3 4 -6 -2 -5 -13z"/>
</g>
</svg>
